<?xml version="1.0" encoding="utf-8"?>
<svg version="1.1" id="Livello_1" xmlns="http://www.w3.org/2000/svg" xmlns:xlink="http://www.w3.org/1999/xlink" x="0px" y="0px"
	 viewBox="0 0 24 24" style="enable-background:new 0 0 24 24;" xml:space="preserve">
<path fill-rule="evenodd" clip-rule="evenodd" fill="#302030" id="vect_shape" class="st0" d="M15,1.4c0.2,0.4,0.3,0.8,0.5,1.1c0.6,1.8,1.2,3.5,1.8,5.3c0.1,0.4,0.4,0.5,0.8,0.5
	c1.3,0,2.7,0,4,0c0.6,0,1,0.3,1,0.8c0,0.5-0.4,0.8-1,0.8c-0.3,0-0.6,0-1,0c-0.1,0.8-0.2,1.5-0.2,2.2c-0.2,1.9-0.4,3.9-0.5,5.8
	c-0.1,0.6-0.1,1.3-0.2,1.9C20,21.7,18.6,23,16.9,23l-3.8,0c-1.9,0-3.8,0-5.7,0c-1.8,0-2.8-1-3.2-2.3c-0.2-0.7-0.3-1.6-0.3-2.4
	c-0.2-2.3-0.4-4.7-0.6-7c0-0.4-0.1-0.9-0.2-1.3C2.8,10,2.6,10,2.4,10c-0.2,0-0.4,0-0.6,0C1.3,10,1,9.6,1,9.1c0-0.4,0.4-0.8,0.9-0.8
	c1.3,0,2.7,0,4,0c0.5,0,0.8-0.2,0.9-0.7c0.7-2,1.4-4.1,2.1-6.1C9,1.4,9.2,1.2,9.3,1.1c0.8-0.1,1.2,0.3,1,1C10.1,3,9.7,3.9,9.4,4.8
	C9.1,5.6,8.8,6.4,8.5,7.3c-0.1,0.3-0.2,0.6-0.4,1c0.2,0.1,0.3,0.2,0.5,0.2c2.3,0,4.6,0,6.9,0c0.1,0,0.2,0,0.3-0.1
	c0-0.2,0-0.3-0.1-0.5c-0.7-1.9-1.3-3.7-2-5.6c0-0.1-0.1-0.3-0.1-0.4c0-0.4,0.1-0.7,0.5-0.8C14.5,0.9,14.8,1.1,15,1.4z M19.4,10H4.8
	c0,0.3,0,0.5,0,0.6c0,0.5,0.1,1,0.2,1.5c0.2,2.5,0.5,5.1,0.7,7.6c0.1,0.9,0.7,1.5,1.6,1.5c0.3,0,0.5,0,0.8,0c2.9,0,5.9,0,8.8,0
	c1.2,0,1.9-0.7,1.9-1.9c0-0.2,0-0.5,0-0.7c0.2-2.7,0.5-5.4,0.7-8.1C19.5,10.4,19.5,10.2,19.4,10z M8.5,13.2c0.3,0,0.7,0.3,0.8,0.7
	c0,0.2,0,0.3,0,0.5l0,0.5l0,0c0,0.7,0,1.4,0,2.1c0,0.7-0.1,0.9-0.8,1.1c-0.5-0.2-0.7-0.5-0.7-1.1c0-0.9,0-1.8,0-2.7
	c0-0.1,0-0.2,0-0.3C7.8,13.5,8.1,13.2,8.5,13.2z M15.8,13.2c0.4,0,0.7,0.5,0.7,0.9l0,1l0,0l0,2l0,0c0,0.5-0.3,0.8-0.7,1
	C15.2,17.9,15,17.6,15,17c0-0.9,0-1.8,0-2.7c0-0.1,0-0.2,0-0.3C15.1,13.4,15.5,13.1,15.8,13.2z M12.1,13.2c0.4,0,0.8,0.4,0.8,0.9
	c0,1,0,2.1,0,3.1c0,0.6-0.4,1-0.8,0.9c-0.4,0-0.7-0.4-0.7-1c0-0.5,0-1,0-1.5h0c0-0.5,0-1,0-1.5C11.4,13.5,11.7,13.2,12.1,13.2z"/>
</svg>
