<svg width="24" height="24" viewBox="0 0 24 24"   class="eds-icon" xmlns="http://www.w3.org/2000/svg">
<path d="M8.9 0C8.6 0 8.3 0.199377 8.2 0.398754C8.1 0.697819 8 0.897196 7.9 1.19626C7.8 1.49533 7.6 1.89408 7.4 2.19315C7 2.79128 6.5 3.19003 6 3.19003H2.8C2.4 3.19003 2 3.58878 2 3.98754V11.9626C2 15.5514 3.7 18.243 5.8 20.2368C7.9 22.1308 10.2 23.3271 11.7 23.9252C11.9 24.0249 12.1 24.0249 12.3 23.9252C13.8 23.3271 16.1 22.2305 18.2 20.2368C20.3 18.3427 22 15.5514 22 11.9626V3.98754C22 3.58878 21.6 3.19003 21.2 3.19003H18.1C17.5 3.19003 17.1 2.79128 16.7 2.19315C16.5 1.89408 16.3 1.49533 16.2 1.19626C16.1 0.897196 16 0.697819 15.9 0.398754C15.7 0.199377 15.4 0 15.1 0H12H8.9ZM9.5 1.59502H12H14.5C14.5 1.6947 14.5 1.6947 14.6 1.79439C14.8 2.19315 15 2.5919 15.3 2.99065C15.9 3.78816 16.8 4.78505 18.2 4.78505H20.4V11.9626C20.4 15.053 18.9 17.3458 17.1 19.0405C15.4 20.6355 13.4 21.6324 12.1 22.2305C10.8 21.7321 8.8 20.6355 7.1 19.0405C5.3 17.3458 3.8 15.053 3.8 11.9626V4.78505H6C7.4 4.78505 8.3 3.88785 8.9 2.99065C9 2.5919 9.2 2.19315 9.4 1.79439C9.4 1.6947 9.4 1.6947 9.5 1.59502ZM12 7.67601C10.3 7.67601 8.9 8.97196 8.9 10.567C8.9 11.2648 9.3 11.9626 9.7 12.4611V14.5545C9.7 15.4517 10.5 16.1495 11.4 16.1495H12.5C13.4 16.1495 14.2 15.4517 14.2 14.5545V12.4611C14.7 11.9626 15 11.3645 15 10.567C15.1 9.07165 13.7 7.67601 12 7.67601ZM12 9.27103C12.8 9.27103 13.4 9.86916 13.4 10.567C13.4 10.9657 13.2 11.2648 12.9 11.5639C12.7 11.7632 12.6 11.9626 12.6 12.162V14.5545H11.5V12.162C11.5 11.9626 11.4 11.6636 11.2 11.5639C10.8 11.2648 10.7 11.0654 10.7 10.567C10.6 9.86916 11.2 9.27103 12 9.27103Z"   />
</svg>
