<svg width="24" height="24" viewBox="0 0 24 24"   class="eds-icon" xmlns="http://www.w3.org/2000/svg">
<path fill-rule="evenodd" clip-rule="evenodd" d="M9.41538 18.0695C9.87692 18.0695 10.2462 18.4402 10.2462 18.9035V23.166C10.2462 23.6293 9.87692 24 9.41538 24C8.95385 24 8.58462 23.6293 8.58462 23.166V18.9035C8.58462 18.4402 8.95385 18.0695 9.41538 18.0695ZM18 18.0695C18.4615 18.0695 18.8308 18.4402 18.8308 18.9035V23.166C18.8308 23.6293 18.4615 24 18 24C17.5385 24 17.1692 23.6293 17.1692 23.166V18.9035C17.1692 18.4402 17.5385 18.0695 18 18.0695ZM5.16923 18.0695C5.63077 18.0695 6 18.4402 6 18.9035V20.6641C6 21.1274 5.63077 21.4981 5.16923 21.4981C4.70769 21.4981 4.33846 21.1274 4.33846 20.6641V18.9035C4.24615 18.4402 4.70769 18.0695 5.16923 18.0695ZM13.7538 18.0695C14.2154 18.0695 14.5846 18.4402 14.5846 18.9035V20.6641C14.5846 21.1274 14.2154 21.4981 13.7538 21.4981C13.2923 21.4981 12.9231 21.1274 12.9231 20.6641V18.9035C12.8308 18.4402 13.2 18.0695 13.7538 18.0695ZM17.1692 0C19.5692 0 21.4154 1.94595 21.4154 4.26255V14.5483H23.1692C23.6308 14.5483 24 14.9189 24 15.3822C24 15.8456 23.6308 16.2162 23.1692 16.2162H0.830769C0.369231 16.2162 0 15.8456 0 15.3822C0 14.9189 0.369231 14.5483 0.830769 14.5483H2.58462V6.76448C2.58462 6.57915 2.67692 6.30116 2.86154 6.11583L8.86154 0.092664C8.95385 0.092664 9.23077 0 9.41538 0H17.1692ZM17.1692 1.76062H11.1692V7.78378C11.1692 8.2471 10.8 8.61776 10.3385 8.61776H4.24615V14.6409H19.6615V4.26255C19.7538 2.87259 18.5538 1.76062 17.1692 1.76062ZM9.41538 2.03861L4.61538 6.85714H9.41538V2.03861Z"   />
</svg>
