<svg width="24" height="24" viewBox="0 0 24 24" class="eds-icon" xmlns="http://www.w3.org/2000/svg">
<path fill-rule="evenodd" clip-rule="evenodd" d="M12 22C17.5228 22 22 17.5228 22 12C22 6.47715 17.5228 2 12 2C6.47715 2 2 6.47715 2 12C2 17.5228 6.47715 22 12 22ZM11.2 6.8C11.2 6.35817 11.5582 6 12 6C12.4418 6 12.8 6.35817 12.8 6.8V11.8372L15.8083 14.8456C16.1208 15.158 16.1208 15.6645 15.8083 15.9769C15.4959 16.2894 14.9894 16.2894 14.677 15.9769L11.5827 12.8827C11.3532 12.742 11.2 12.4889 11.2 12.2V6.8Z" />
</svg>
