<svg width="24" height="24" viewBox="0 0 24 24"   class="everli-icon" xmlns="http://www.w3.org/2000/svg">
<path d="M12 1C15.9058 1 19.0714 4.16643 19.0714 8.07143C21.2408 8.07143 23 9.83143 23 12V19.0714C23 21.24 21.2408 23 19.0714 23H4.92857C2.75921 23 1 21.24 1 19.0714V12C1 9.83143 2.75921 8.07143 4.92857 8.07143C4.92857 4.16643 8.09421 1 12 1ZM19.0714 9.64286H4.92857C3.62664 9.64286 2.57143 10.6957 2.57143 12V19.0714C2.57143 20.3757 3.62664 21.4286 4.92857 21.4286H19.0714C20.3734 21.4286 21.4286 20.3757 21.4286 19.0714V12C21.4286 10.6957 20.3734 9.64286 19.0714 9.64286ZM11.9565 12C12.4845 12 12.913 12.4304 12.913 12.9565V16.7826C12.913 17.3087 12.4845 17.7391 11.9565 17.7391C11.4285 17.7391 11 17.3087 11 16.7826V12.9565C11 12.4304 11.4285 12 11.9565 12ZM12 2.57143C8.96243 2.57143 6.5 5.03071 6.5 8.07143H17.5C17.5 5.03071 15.0376 2.57143 12 2.57143Z" fill="#302030"/>
</svg>
