<svg width="24" height="24" viewBox="0 0 24 24" class="eds-icon" xmlns="http://www.w3.org/2000/svg">
<path d="M8.00193 12.061C8.01575 12.2593 8.09422 12.4471 8.22472 12.5944L14.484 19.7053C14.6381 19.8807 14.854 19.9862 15.0843 19.9987C15.3146 20.0113 15.5403 19.9297 15.7119 19.7721C15.8834 19.6143 15.9866 19.3935 15.9988 19.158C16.011 18.9226 15.9312 18.6917 15.7771 18.5164L10.0394 12L15.7771 5.48363C15.9312 5.30828 16.011 5.07751 15.9988 4.84202C15.9866 4.60653 15.8834 4.38568 15.7119 4.22794C15.5403 4.07033 15.3146 3.98873 15.0843 4.00126C14.854 4.01378 14.638 4.11931 14.4838 4.29478L8.2246 11.4057C8.06645 11.5843 7.98628 11.8207 8.00193 12.061Z" />
</svg>
