<svg width="24" height="24" viewBox="0 0 24 24" class="eds-icon" xmlns="http://www.w3.org/2000/svg">
<path d="M12 2C17.5164 2 22 6.48362 22 12C22 17.4218 17.6631 21.8615 12.2431 21.997L11.9896 21.9999L11.7465 21.9968C6.33686 21.8615 2 17.4218 2 12C2 6.48362 6.48362 2 12 2ZM12 3.66667C7.4041 3.66667 3.66667 7.4041 3.66667 12C3.66667 16.517 7.28191 20.218 11.7777 20.3305L11.9896 20.3334L12.2118 20.3307C16.7181 20.218 20.3333 16.517 20.3333 12C20.3333 7.4041 16.5959 3.66667 12 3.66667ZM17.5687 8.10423C17.8658 8.40711 17.9164 8.87723 17.702 9.24337L17.6428 9.33258L17.5687 9.4186L11.2252 15.8852C11.0472 16.0666 10.8183 16.1667 10.5702 16.1667C10.4046 16.1667 10.2471 16.1221 10.1033 16.0345L9.99823 15.9607L9.91512 15.8852L6.4324 12.3349C6.07809 11.9737 6.07809 11.3817 6.4324 11.0205C6.72951 10.7177 7.19069 10.6661 7.54986 10.8847L7.63737 10.945L7.72175 11.0205L10.5702 13.9245L16.2834 8.10022C16.6581 7.74371 17.215 7.74371 17.5687 8.10423Z" />
</svg>
