<svg width="24" height="24" viewBox="0 0 24 24"   class="everli-icon" xmlns="http://www.w3.org/2000/svg">
<path d="M16.1957 1.00001C17.2383 0.99815 18.2389 1.41083 18.9771 2.14715L21.8528 5.02287C22.5892 5.76105 23.0018 6.76166 23 7.80429V19.0714C23 21.2411 21.2411 23 19.0714 23H4.92857C2.75888 23 1 21.2411 1 19.0714V4.92858C1 2.75889 2.75888 1.00001 4.92857 1.00001H16.1957ZM16.1957 2.57144H4.92857C3.62675 2.57144 2.57143 3.62677 2.57143 4.92858V19.0714C2.57143 20.3732 3.62675 21.4286 4.92857 21.4286H19.0714C20.3732 21.4286 21.4286 20.3732 21.4286 19.0714V7.80429C21.428 7.17935 21.1793 6.58021 20.7371 6.13858L17.8614 3.26287C17.4198 2.82069 16.8206 2.57199 16.1957 2.57144ZM12 9.64286C14.6036 9.64286 16.7143 11.7535 16.7143 14.3571C16.7143 16.9608 14.6036 19.0714 12 19.0714C9.39636 19.0714 7.28571 16.9608 7.28571 14.3571C7.28571 11.7535 9.39636 9.64286 12 9.64286ZM12 11.2143C10.2642 11.2143 8.85714 12.6214 8.85714 14.3571C8.85714 16.0929 10.2642 17.5 12 17.5C13.7357 17.5 15.1428 16.0929 15.1428 14.3571C15.1428 12.6214 13.7357 11.2143 12 11.2143ZM7.28571 4.14287C7.71965 4.14287 8.07142 4.49464 8.07142 4.92858V7.28572C8.07142 7.71966 7.71965 8.07144 7.28571 8.07144C6.85177 8.07144 6.5 7.71966 6.5 7.28572V4.92858C6.5 4.49464 6.85177 4.14287 7.28571 4.14287Z"   />
</svg>
