<svg width="24" height="24" viewBox="0 0 24 24"   class="everli-icon" xmlns="http://www.w3.org/2000/svg">
<path d="M14.292 1.05395C14.7022 0.894704 15.1634 1.09944 15.3228 1.51759L17.9389 8.38663H23.203C23.643 8.38663 24 8.75061 24 9.19908C24 9.64756 23.643 10.0115 23.203 10.0115H21.759L20.8451 19.5086C20.8483 21.3978 19.3479 23 17.5032 23H6.49783C4.65315 23 3.15275 21.3978 3.15275 19.4295L2.2421 10.0115H0.796954C0.357035 10.0115 0 9.64756 0 9.19908C0 8.75061 0.357035 8.38663 0.796954 8.38663H6.0611L8.67723 1.51759C8.83556 1.09944 9.29673 0.894704 9.70902 1.05395C10.1192 1.21752 10.3221 1.68766 10.1628 2.1058L7.77189 8.38663H16.2292L13.8372 2.1058C13.6779 1.68766 13.8808 1.21752 14.292 1.05395ZM20.2075 10.0115H4.07086L4.96004 19.3504C4.96425 20.502 5.74097 21.3751 6.69636 21.3751H17.582C18.5374 21.3751 19.3141 20.502 19.3141 19.4295L20.2075 10.0115ZM16.0979 13.1553C16.5639 13.1553 16.9421 13.5193 16.9421 13.9678V17.2588C16.9421 17.7072 16.5639 18.0712 16.0979 18.0712C15.632 18.0712 15.2538 17.7072 15.2538 17.2588V13.9678C15.2538 13.5193 15.632 13.1553 16.0979 13.1553ZM12.1391 13.1553C12.605 13.1553 12.9832 13.5193 12.9832 13.9678V17.2588C12.9832 17.7072 12.605 18.0712 12.1391 18.0712C11.6731 18.0712 11.295 17.7072 11.295 17.2588V13.9678C11.295 13.5193 11.6731 13.1553 12.1391 13.1553ZM8.18008 13.1553C8.64603 13.1553 9.02419 13.5193 9.02419 13.9678V17.2588C9.02419 17.7072 8.64603 18.0712 8.18008 18.0712C7.71413 18.0712 7.33597 17.7072 7.33597 17.2588V13.9678C7.33597 13.5193 7.71413 13.1553 8.18008 13.1553Z" fill="#302030"/>
</svg>
