<svg width="24" height="24" viewBox="0 0 24 24"   class="eds-icon" xmlns="http://www.w3.org/2000/svg">
<path fill-rule="evenodd" clip-rule="evenodd" d="M4.72079 19.9655C4.00667 19.9655 3.43076 19.6469 3.07754 19.1234C2.73968 18.6228 2.65445 18.0083 2.73968 17.4317C2.77731 17.1662 2.87713 16.9462 2.96927 16.7793L4.74383 13.6614L5.18919 9.23103C5.23526 8.99586 5.3036 8.76069 5.38116 8.5331C5.50402 8.14621 5.70366 7.61517 6.01005 7.04621C6.55523 6.0069 7.46209 4.77793 8.91337 4.00414C8.92796 2.34276 10.2948 1 11.9849 1C13.6742 1 15.041 2.34276 15.0563 4.00414C16.5069 4.77793 17.4137 6.0069 17.9589 7.04621C18.2653 7.61517 18.4649 8.14621 18.5878 8.5331C18.6492 8.73034 18.6961 8.88966 18.7268 9.00345C18.7383 9.04896 18.7479 9.09258 18.7575 9.1362C18.7671 9.17981 18.7767 9.22345 18.7882 9.26897V13.6614L20.8998 16.6655C21.045 16.8779 21.2062 17.1738 21.2454 17.5303C21.3061 18.0917 21.2062 18.6834 20.8615 19.1614C20.5075 19.6621 19.94 19.9655 19.2489 19.9655H15.547C15.1938 21.6952 13.6435 23 11.7852 23C9.92696 23 8.38354 21.6952 8.02264 19.9655H4.72079ZM13.9583 19.9655H9.61213C9.93464 20.8531 10.7862 21.4828 11.7852 21.4828C12.7904 21.4828 13.6435 20.8531 13.9583 19.9655ZM10.4491 4.03448C10.4491 3.2 11.1402 2.51724 11.9849 2.51724C12.8287 2.51724 13.5206 3.2 13.5206 4.03448V4.98276L13.9806 5.18C15.2629 5.72621 16.0853 6.7731 16.599 7.74414C16.8532 8.22207 17.0221 8.66965 17.1296 8.99586C17.1451 9.05025 17.1598 9.10109 17.1735 9.1481C17.1997 9.23871 17.2219 9.31526 17.2371 9.37517C17.2398 9.38393 17.2414 9.39157 17.2429 9.39851C17.2453 9.40961 17.2473 9.41894 17.2525 9.42828V14.1317L19.6398 17.5303C19.7012 17.629 19.7173 17.6821 19.7173 17.6972C19.748 17.9779 19.6866 18.1828 19.6091 18.289C19.5476 18.3724 19.4562 18.4483 19.2489 18.4483H4.72079C4.5127 18.4483 4.41287 18.3724 4.35221 18.2814C4.27542 18.1676 4.21399 17.9476 4.2593 17.6517C4.2593 17.6366 4.26774 17.5986 4.31305 17.5228L6.24041 14.1317L6.70958 9.46621C6.72493 9.39793 6.77101 9.23103 6.83935 8.99586C6.94685 8.66965 7.11655 8.22207 7.36995 7.74414C7.88442 6.7731 8.70604 5.72621 9.98839 5.18L10.4491 4.98276V4.03448Z"   />
<path d="M6.51692 2.31241C6.39406 1.90276 5.97173 1.67517 5.56476 1.78897C2.47868 2.66138 0.320959 6.09793 1.19633 9.5269C1.29616 9.93655 1.71081 10.1793 2.12546 10.0807C2.53166 9.98207 2.78506 9.56483 2.68524 9.16276C2.01719 6.52276 3.6996 3.89035 5.98709 3.24552C6.39406 3.13172 6.63287 2.71448 6.51692 2.31241Z"   />
<path d="M18.4352 1.78897C18.0283 1.67517 17.6059 1.90276 17.4831 2.31241C17.3671 2.71448 17.6059 3.13172 18.0129 3.24552C20.3004 3.89035 21.9828 6.52276 21.3148 9.16276C21.2149 9.56483 21.4683 9.98207 21.8745 10.0807C22.2892 10.1793 22.7038 9.93655 22.8037 9.5269C23.679 6.09793 21.5213 2.66138 18.4352 1.78897Z"   />
</svg>
