<svg width="24" height="24" viewBox="0 0 24 24"   class="everli-icon" xmlns="http://www.w3.org/2000/svg">
<path d="M12 1C18.0751 1 23 5.92486 23 12C23 18.0751 18.0751 23 12 23C5.92486 23 1 18.0751 1 12C1 5.92486 5.92486 1 12 1ZM12 2.57143C6.79307 2.57143 2.57143 6.79307 2.57143 12C2.57143 17.2069 6.79307 21.4286 12 21.4286C17.2069 21.4286 21.4286 17.2069 21.4286 12C21.4286 6.79307 17.2069 2.57143 12 2.57143ZM12 10.4286C12.4337 10.4286 12.7857 10.7806 12.7857 11.2143V17.5C12.7857 17.9337 12.4337 18.2857 12 18.2857C11.5663 18.2857 11.2143 17.9337 11.2143 17.5V11.2143C11.2143 10.7806 11.5663 10.4286 12 10.4286ZM12 5.71429C12.4337 5.71429 12.7857 6.06629 12.7857 6.5V8.07143C12.7857 8.50514 12.4337 8.85714 12 8.85714C11.5663 8.85714 11.2143 8.50514 11.2143 8.07143V6.5C11.2143 6.06629 11.5663 5.71429 12 5.71429Z"   />
</svg>
