<svg width="24" height="24" viewBox="0 0 24 24" class="eds-icon" xmlns="http://www.w3.org/2000/svg">
<path d="M12 2C17.5164 2 22 6.48362 22 12C22 17.4218 17.6631 21.8615 12.2431 21.997L11.9896 21.9999L11.7465 21.9968C6.33686 21.8615 2 17.4218 2 12C2 6.48362 6.48362 2 12 2ZM12 3.66667C7.4041 3.66667 3.66667 7.4041 3.66667 12C3.66667 16.517 7.28191 20.218 11.7777 20.3305L11.9896 20.3334L12.2118 20.3307C16.7181 20.218 20.3333 16.517 20.3333 12C20.3333 7.4041 16.5959 3.66667 12 3.66667Z" />
<path d="M12 6C11.5582 6 11.2 6.35817 11.2 6.8V12.2C11.2 12.4889 11.3531 12.742 11.5827 12.8827L14.677 15.9769C14.9894 16.2894 15.4959 16.2894 15.8083 15.9769C16.1207 15.6645 16.1207 15.158 15.8083 14.8456L12.8 11.8372V6.8C12.8 6.35817 12.4418 6 12 6Z" />
</svg>
