<svg width="24" height="24" viewBox="0 0 24 24" fill="none" class="everli-icon" xmlns="http://www.w3.org/2000/svg">
<path d="M12.9196 3.74889C15.2252 1.41704 18.9645 1.41704 21.2708 3.74889C23.5727 6.07704 23.5764 9.84889 21.2818 12.1807L12.539 21.7615C12.4004 21.9133 12.2046 22 12 22C11.7954 22 11.5996 21.9133 11.461 21.7615L2.7182 12.1807C0.423605 9.84889 0.427271 6.07704 2.7292 3.74889C5.03554 1.41704 8.7748 1.41704 11.0804 3.74889L12 4.67852L12.9196 3.74889ZM20.2043 4.81633C18.4775 3.0447 15.6772 3.0447 13.9504 4.81633L12.5174 6.28558C12.38 6.42629 12.1937 6.50488 12 6.50488C11.8063 6.50488 11.62 6.42629 11.4833 6.28558L10.0496 4.81633C8.32277 3.0447 5.52246 3.0447 3.79565 4.81633C2.06812 6.58721 2.06812 9.45984 3.79565 11.2315C3.80223 11.2382 3.80954 11.2457 3.81612 11.2524L12 20.3471L20.1839 11.2524C20.1905 11.2457 20.1978 11.2382 20.2043 11.2315C21.9319 9.45984 21.9319 6.58721 20.2043 4.81633Z" fill="#302030"/>
</svg>
