<svg width="24" height="24" viewBox="0 0 24 24"   class="everli-icon" xmlns="http://www.w3.org/2000/svg">
<path fill-rule="evenodd" clip-rule="evenodd" d="M23.4835 4.71818C23.6438 4.8 23.8842 5.04545 23.9644 5.20909C24.0445 5.29091 23.9644 5.53636 23.9644 5.61818C23.9644 10.4455 23.9644 15.3545 23.9644 20.1C23.9644 20.6727 23.8041 20.9182 23.0827 20.9182C19.7165 20.9182 16.19 20.9182 12.7436 20.9182L2.4846 21C2.08386 21 1.76327 20.8364 1.76327 20.4273C1.76327 20.1 2.08386 19.8545 2.4846 19.8545C2.80519 19.8545 2.96549 19.8545 3.28609 19.8545H21.8004C21.8805 19.8545 21.9607 19.8545 21.9607 19.8545H22.0408C22.5217 19.8545 22.6019 19.7727 22.6019 19.2818V12.4909C22.6019 10.2 22.6019 7.99091 22.6019 5.7C22.6019 5.53636 22.682 5.20909 22.7622 4.96364C23.0026 4.8 23.3232 4.71818 23.4835 4.71818ZM20.0371 3C20.4378 3.32727 20.5981 3.57273 20.5981 4.06364C20.5981 8.15455 20.5981 12.3273 20.5981 16.5C20.5981 17.3182 20.2776 17.5636 19.6364 17.5636H19.5562C19.3959 17.5636 19.2356 17.5636 19.0753 17.5636H0.801484C0.240445 17.5636 0 17.2364 0 16.6636C0 16.1727 0 15.6818 0 15.1909C0 11.4273 0 7.58182 0 3.81818C0 3.40909 0.0801484 3.08182 0.480891 3H20.0371ZM18.8349 4.30909H10.1788C7.85455 4.30909 5.69054 4.30909 3.36623 4.30909H1.76327C1.04193 4.30909 1.20223 4.39091 1.20223 5.04545V8.07273C1.20223 10.0364 1.20223 12 1.20223 13.9636V15.6C1.20223 16.5 1.28237 16.3364 2.00371 16.3364C7.29351 16.3364 12.7436 16.3364 18.0334 16.3364C18.354 16.3364 18.5143 16.3364 18.8349 16.3364C19.1555 16.3364 19.2356 16.0909 19.2356 15.7636C19.2356 15.3545 19.2356 14.9455 19.2356 14.5364V14.1273C19.2356 11.0182 19.2356 7.82727 19.2356 4.71818C19.3158 4.39091 19.2356 4.30909 18.8349 4.30909ZM13.0642 10.1182C13.0642 11.8364 11.7017 12.9818 10.259 13.1455C8.33544 13.2273 7.05306 11.8364 6.97291 10.0364C6.89276 8.64545 8.25529 7.00909 9.77811 7.00909C11.7818 6.92727 13.0642 8.56364 13.0642 10.1182Z" fill="#302030"/>
</svg>
