<svg width="24" height="24" viewBox="0 0 24 24"   class="everli-icon" xmlns="http://www.w3.org/2000/svg">
<path d="M8.63069 10.6787C9.09312 10.6786 9.45646 10.3153 9.45646 9.85285C9.45646 8.46546 10.5795 7.3424 11.9669 7.3424C13.3543 7.3424 14.4774 8.46546 14.4774 9.85285C14.4774 11.2402 13.3543 12.3633 11.9669 12.3633C11.5045 12.3633 11.1411 12.7267 11.1411 13.1891V14.8078C11.1411 15.2703 11.5045 15.6336 11.9669 15.6336C12.4294 15.6336 12.7927 15.2703 12.7927 14.8078V13.9159C14.7087 13.5195 16.129 11.8347 16.129 9.8197C16.129 7.50745 14.246 5.62445 11.9338 5.62445C9.6215 5.62445 7.7385 7.50745 7.7385 9.8197C7.80486 10.2824 8.16824 10.6787 8.63069 10.6787Z"   />
<path d="M11.1411 17.2523C11.1411 16.7898 11.5045 16.4264 11.967 16.4264C12.4294 16.4264 12.826 16.8228 12.7928 17.2523V17.4836C12.7928 17.946 12.4294 18.3094 11.967 18.3094C11.5045 18.3094 11.1411 17.946 11.1411 17.4836V17.2523Z"   />
<path fill-rule="evenodd" clip-rule="evenodd" d="M1 12C1 18.045 5.92198 23 12 23C18.0781 23 23 18.078 23 12C22.9998 5.92192 18.0448 1 11.967 1C5.88889 1 1 5.92198 1 12ZM11.967 2.68468C17.1201 2.68468 21.2823 6.84679 21.2823 12C21.2823 17.1529 17.12 21.3153 11.967 21.3153C6.81393 21.3153 2.65165 17.1201 2.65165 12C2.65165 6.88006 6.84667 2.68468 11.967 2.68468Z"   />
</svg>
