<svg width="24" height="24" viewBox="0 0 24 24"   class="eds-icon" xmlns="http://www.w3.org/2000/svg">
<path fill-rule="evenodd" clip-rule="evenodd" d="M12.0828 13.1362C14.6923 13.2457 17.3018 13.4646 19.8025 14.4498C20.8898 14.8877 21.9771 15.435 22.8469 16.2013C24.5866 17.8433 24.2604 20.0327 22.5208 21.3463C21.4335 22.2221 20.2375 22.7694 18.824 23.0978C16.4319 23.8641 13.9312 24.083 11.5391 23.9736C9.14711 23.9736 6.8638 23.6452 4.58049 22.8789C3.49321 22.441 2.29719 21.8937 1.42736 21.1274C-0.529762 19.4854 -0.421033 17.6244 1.42736 15.8729C2.7321 14.7782 4.25431 14.1214 5.99397 13.793C7.95109 13.4646 9.90821 13.2457 12.0828 13.1362ZM10.1257 14.8877C8.05982 15.1066 5.99397 15.435 4.14558 16.3108C3.05829 16.7487 1.971 17.4055 1.64482 18.7191C1.64482 18.8286 1.75354 18.938 1.75354 19.0475C2.29719 20.2516 3.38448 20.799 4.47177 21.2369C6.75507 22.2221 9.25584 22.5505 11.7566 22.5505C13.9312 22.5505 16.1058 22.441 18.2803 21.6747C19.5851 21.2369 20.7811 20.799 21.7597 19.9232C22.6295 19.157 22.7382 18.5002 21.9771 17.6244C21.7597 17.4055 21.5422 17.1865 21.3247 17.0771C19.8025 15.9824 17.9541 15.435 16.1058 15.2161C14.1486 14.8877 12.0828 14.5593 10.1257 14.8877ZM12.0828 0C15.6708 0 18.1716 2.62724 18.1716 6.13023C18.1716 9.63322 15.5621 12.0415 11.9741 12.151C8.49473 12.0415 5.88524 9.63322 5.88524 6.13023C5.88524 2.51777 8.60346 0 12.0828 0ZM12.0828 1.53256C9.47329 1.53256 7.51617 3.50299 7.51617 6.02076C7.51617 8.42906 9.58202 10.509 12.0828 10.509C14.5836 10.509 16.5407 8.53853 16.5407 6.13023C16.5407 3.28405 14.3661 1.53256 12.0828 1.53256Z"   />
</svg>
