<svg width="24" height="24" viewBox="0 0 24 24" fill="none" class="everli-icon" xmlns="http://www.w3.org/2000/svg">
<path fill-rule="evenodd" clip-rule="evenodd" d="M23 12C23 5.92525 18.0757 1 12 1C5.92525 1 1 5.92525 1 12C1 18.0757 5.92525 23 12 23C18.0757 23 23 18.0757 23 12ZM17.321 7.52466C17.5596 7.29046 17.5596 6.90801 17.321 6.67385C17.107 6.46324 16.7672 6.44205 16.5282 6.62086L16.4709 6.66981L16.4665 6.67385L12 11.0574L7.53351 6.67385L7.47657 6.62467C7.23278 6.44205 6.89299 6.46324 6.67887 6.67393C6.44036 6.90801 6.44037 7.29046 6.67898 7.52464L11.2415 12L6.67897 16.4754C6.44039 16.7095 6.44035 17.092 6.67883 17.3261C6.91451 17.558 7.29791 17.558 7.53359 17.3261L12 12.942L16.4665 17.3262C16.7021 17.558 17.0855 17.558 17.3212 17.326C17.5596 17.092 17.5596 16.7095 17.321 16.4754L12.7585 12L17.321 7.52466Z" fill="#302030"/>
</svg>
