<svg width="24" height="24" viewBox="0 0 24 24"   class="eds-icon" xmlns="http://www.w3.org/2000/svg">
<path d="M10.0257 1C14.4582 1 18.0514 4.57717 18.0514 8.98983C18.0514 11.011 17.2975 12.8569 16.0544 14.2641L21.6219 19.8062C22.126 20.3081 22.126 21.1218 21.6219 21.6236C21.1514 22.092 20.4081 22.1232 19.9012 21.7173L19.7964 21.6236L14.051 15.9036C12.8677 16.5878 11.4927 16.9797 10.0257 16.9797C5.59323 16.9797 2 13.4025 2 8.98983C2 4.57717 5.59323 1 10.0257 1ZM10.0257 3.57015C7.01906 3.57015 4.58169 5.99663 4.58169 8.98983C4.58169 11.983 7.01906 14.4095 10.0257 14.4095C13.0323 14.4095 15.4697 11.983 15.4697 8.98983C15.4697 5.99663 13.0323 3.57015 10.0257 3.57015Z"   />
</svg>
