<svg width="24" height="24" viewBox="0 0 24 24"   class="eds-icon" xmlns="http://www.w3.org/2000/svg">
<path d="M12 1C18.068 1 23 5.93198 23 12C23 17.964 18.2295 22.8477 12.2674 22.9967L11.9885 22.9999L11.7211 22.9965C5.77055 22.8477 1 17.964 1 12C1 5.93198 5.93198 1 12 1ZM12 2.83333C6.94451 2.83333 2.83333 6.94451 2.83333 12C2.83333 16.9687 6.81011 21.0398 11.7555 21.1635L11.9885 21.1667L12.233 21.1638C17.1899 21.0398 21.1667 16.9687 21.1667 12C21.1667 6.94451 17.0555 2.83333 12 2.83333ZM18.1256 7.71465C18.4524 8.04782 18.508 8.56495 18.2722 8.96771L18.2071 9.06584L18.1256 9.16046L11.1477 16.2737C10.9519 16.4733 10.7001 16.5833 10.4272 16.5833C10.245 16.5833 10.0718 16.5343 9.91368 16.4379L9.79806 16.3568L9.70663 16.2737L5.87565 12.3684C5.4859 11.9711 5.4859 11.3199 5.87565 10.9226C6.20247 10.5894 6.70976 10.5328 7.10485 10.7732L7.20111 10.8395L7.29393 10.9226L10.4272 14.117L16.7118 7.71025C17.124 7.31808 17.7366 7.31808 18.1256 7.71465Z"   />
</svg>
