<svg width="24" height="24" viewBox="0 0 24 24"   class="eds-icon" xmlns="http://www.w3.org/2000/svg">
<path d="M1 16.5H0V21C0 22.6569 1.34315 24 3 24H8V23H3C1.89543 23 1 22.1046 1 21V16.5Z"   />
<path d="M24 21V16.5H23V21C23 22.1046 22.1046 23 21 23H16V24H21C22.6569 24 24 22.6569 24 21Z"   />
<path d="M24 3C24 1.34315 22.6569 0 21 0H16V1H21C22.1046 1 23 1.89543 23 3V8.5H24V3Z"   />
<path d="M3 1H8V0H3C1.34315 0 0 1.34315 0 3V8.5H1V3C1 1.89543 1.89543 1 3 1Z"   />
<path fill-rule="evenodd" clip-rule="evenodd" d="M14.9477 14.447L18.9447 18.4432C19.161 18.6596 19.161 19.0103 18.9447 19.2267C18.8369 19.3345 18.6951 19.3891 18.5533 19.3891C18.4116 19.3891 18.2698 19.3345 18.162 19.2267L14.0905 15.1551C13.1586 15.7872 12.0355 16.1571 10.8282 16.1571C7.61468 16.1571 5 13.5425 5 10.3282C5 7.11468 7.61468 4.5 10.8282 4.5C14.0417 4.5 16.6564 7.11468 16.6564 10.3282C16.6564 11.935 16.0029 13.3911 14.9477 14.447ZM10.8282 5.6076C8.22533 5.6076 6.1076 7.72607 6.1076 10.3282C6.1076 12.9311 8.22533 15.0495 10.8282 15.0495C11.9299 15.0495 12.9422 14.667 13.7464 14.032L13.7478 14.0298C13.7499 14.0273 13.7525 14.0259 13.7552 14.0246C13.7572 14.0236 13.7592 14.0225 13.7611 14.0209C14.848 13.1548 15.5488 11.8227 15.5488 10.3282C15.5488 7.72607 13.4311 5.6076 10.8282 5.6076Z"   />
</svg>
