<svg width="24" height="24" viewBox="0 0 24 24"   class="everli-icon" xmlns="http://www.w3.org/2000/svg">
<path d="M12 22.6392C10.7873 22.6392 9.57436 22.445 8.38975 22.0289L2.72052 23H2.57945C2.32565 23 2.07186 22.8891 1.93078 22.6948C1.73325 22.4452 1.70512 22.14 1.81805 21.8625L3.31292 18.4224C2.66425 17.5901 2.15646 16.7024 1.76159 15.759C1.25379 14.5106 1 13.1791 1 11.8196C1 5.85493 5.9359 1 12 1C18.0641 1 23 5.85493 23 11.8196C23 17.7842 18.0641 22.6392 12 22.6392ZM12 2.66466C6.86667 2.66466 2.69231 6.7705 2.69231 11.8197C2.69231 12.9849 2.91798 14.0947 3.34098 15.1487C3.70771 16.0919 4.24364 16.9519 4.92042 17.7287C5.11795 17.9783 5.17422 18.3114 5.06148 18.5886L3.98964 21.0854L8.33333 20.3641H8.47439C8.58713 20.3641 8.67193 20.3918 8.75653 20.4197C9.80007 20.808 10.9001 21.0023 12 21.0023C17.1333 21.0023 21.3077 16.8965 21.3077 11.8473C21.3077 6.79815 17.1334 2.66466 12 2.66466Z"   />
</svg>
