<svg width="24" height="24" viewBox="0 0 24 24"   class="everli-icon" xmlns="http://www.w3.org/2000/svg">
<path fill-rule="evenodd" clip-rule="evenodd" d="M16.3933 0C16.8117 0 17.4812 0.230032 17.7322 0.536741L21.4142 3.91054C21.749 4.21725 22 4.75399 22 5.13738V20.6262C22 20.9329 21.749 21.1629 21.4142 21.1629H20.9958C20.3264 21.1629 19.7406 21.623 19.7406 22.2364V23.4633C19.7406 23.77 19.4895 24 19.1548 24H2.58577C2.25105 24 2 23.77 2 23.4633V2.68371C2 2.377 2.25105 2.14696 2.58577 2.14696H3.92469C4.59414 2.14696 5.17992 1.6869 5.17992 1.07348V0.536741C5.17992 0.230032 5.51464 0 5.84937 0H16.3933ZM4.42678 3.22045H4.00837C3.58996 3.22045 3.25523 3.52716 3.25523 3.91054V21.853C3.25523 22.4665 3.841 22.9265 4.51046 22.9265H17.8159C18.2343 22.9265 18.569 22.6198 18.569 22.2364V21.853C18.569 21.4696 18.2343 21.1629 17.8159 21.1629H5.84937C5.51464 21.1629 5.2636 20.9329 5.2636 20.6262V3.91054C5.17992 3.52716 4.84519 3.22045 4.42678 3.22045ZM15.4728 1.15016H7.69038C7.02092 1.15016 6.43515 1.61022 6.43515 2.22364V18.9393C6.43515 19.246 6.51883 19.476 6.76987 19.7061C7.02092 19.9361 7.27197 20.0128 7.60669 20.0128H19.5732C20.2427 20.0128 20.8285 19.5527 20.8285 18.9393V5.98083C20.8285 5.67412 20.6611 5.44409 20.4937 5.21406C20.2427 4.98403 19.9916 4.90735 19.6569 4.90735H18.2343C17.3975 4.90735 16.728 4.29393 16.728 3.52716V2.22364C16.6444 1.61022 16.1423 1.15016 15.4728 1.15016ZM13.6318 8.74121C13.9665 8.74121 14.2176 8.97125 14.2176 9.27796V13.8019L15.8912 12.1917C15.9749 12.115 16.1423 12.0383 16.3096 12.0383C16.477 12.0383 16.6444 12.115 16.728 12.1917C16.9791 12.4217 16.9791 12.8051 16.728 13.0351L13.9665 15.5655C13.8828 15.6422 13.7155 15.7188 13.5481 15.7188C13.3808 15.7188 13.2134 15.6422 13.1297 15.5655L10.3682 13.0351C10.1172 12.8051 10.1172 12.4217 10.3682 12.1917C10.4519 12.115 10.6192 12.0383 10.7866 12.0383C10.954 12.0383 11.1213 12.115 11.205 12.1917L12.9623 13.8019V9.35463C12.9623 8.97125 13.2971 8.74121 13.6318 8.74121Z"   />
</svg>
