<svg width="24" height="24" viewBox="0 0 24 24"   class="everli-icon" xmlns="http://www.w3.org/2000/svg">
<path d="M14.0814 5.89982L18.0714 9.89696L19.7093 8.25617C20.8107 7.15206 20.8107 5.36243 19.7093 4.25903C18.6071 3.15492 16.8214 3.15492 15.7193 4.25903L14.0814 5.89982ZM7.41857 20.5689L17.0614 10.9088L13.0714 6.91163L3.42857 16.5717V20.5689H7.41857ZM14.7093 3.24723C16.3686 1.58426 19.06 1.58426 20.7193 3.24723C22.3793 4.90948 22.3793 7.60501 20.7193 9.26798L9.43857 20.5689H21.2857C21.68 20.5689 22 20.8887 22 21.2844C22 21.6794 21.68 22 21.2857 22H2.71429C2.32 22 2 21.6794 2 21.2844V16.2755C2 16.0859 2.075 15.9034 2.20929 15.7696L14.7093 3.24723Z"   />
</svg>
