<svg width="24" height="24" viewBox="0 0 24 24"   class="eds-icon" xmlns="http://www.w3.org/2000/svg">
<path d="M3.16609 8.28079H20.8339C21.4779 8.28079 22 7.77022 22 7.1404C22 6.51057 21.4779 6 20.8339 6H3.16609C2.52207 6 2 6.51057 2 7.1404C2 7.77022 2.52207 8.28079 3.16609 8.28079ZM6.66435 13.1404H17.3357C17.9797 13.1404 18.5017 12.6298 18.5017 12C18.5017 11.3702 17.9797 10.8596 17.3357 10.8596H6.66435C6.02034 10.8596 5.49826 11.3702 5.49826 12C5.49826 12.6298 6.02034 13.1404 6.66435 13.1404ZM9.57957 18H14.4204C15.0644 18 15.5865 17.4894 15.5865 16.8596C15.5865 16.2298 15.0644 15.7192 14.4204 15.7192H9.57957C8.93555 15.7192 8.41348 16.2298 8.41348 16.8596C8.41348 17.4894 8.93555 18 9.57957 18Z"   />
</svg>
