<svg width="24" height="24" viewBox="0 0 24 24"   class="everli-icon" xmlns="http://www.w3.org/2000/svg">
<path d="M19.479 1.22474C19.1793 0.925085 18.6799 0.925085 18.3802 1.22474L2.09875 17.5062C1.99886 17.6061 1.99886 17.706 1.89898 17.9058L1 22.101C1 22.3008 1 22.6005 1.19977 22.8002C1.39955 23 1.49943 23 1.79909 23H1.99886L6.1941 22.101C6.29398 22.101 6.49376 22.0011 6.59364 21.9012L22.7753 5.61975C23.0749 5.32009 23.0749 4.82066 22.7753 4.521L19.479 1.22474ZM5.99432 20.2032L3.89671 18.1056L16.9818 4.82066L19.1793 7.01816L5.99432 20.2032Z" fill="#302030"/>
</svg>
