<svg width="24" height="24" viewBox="0 0 24 24"   class="eds-icon" xmlns="http://www.w3.org/2000/svg">
<path d="M9.55556 12C9.55556 10.6556 10.6556 9.55556 12 9.55556C13.3444 9.55556 14.4444 10.6556 14.4444 12C14.4444 13.3444 13.3444 14.4444 12 14.4444C10.6556 14.4444 9.55556 13.3444 9.55556 12ZM12 1C12.4321 1 12.7857 1.35357 12.7857 1.78571V3.38857C16.9343 3.76571 20.2343 7.06571 20.6114 11.2143H22.2143C22.6464 11.2143 23 11.5679 23 12C23 12.4321 22.6464 12.7857 22.2143 12.7857H20.6114C20.2343 16.9343 16.9343 20.2343 12.7857 20.6114V22.2143C12.7857 22.6464 12.4321 23 12 23C11.5679 23 11.2143 22.6464 11.2143 22.2143V20.6114C7.06571 20.2343 3.76571 16.9343 3.38857 12.7857H1.78571C1.35357 12.7857 1 12.4321 1 12C1 11.5679 1.35357 11.2143 1.78571 11.2143H3.38857C3.76571 7.06571 7.06571 3.76571 11.2143 3.38857V1.78571C11.2143 1.35357 11.5679 1 12 1ZM12 4.92857C8.095 4.92857 4.92857 8.095 4.92857 12C4.92857 15.905 8.095 19.0714 12 19.0714C15.905 19.0714 19.0714 15.905 19.0714 12C19.0714 8.095 15.905 4.92857 12 4.92857ZM12 8.33333C14.0258 8.33333 15.6667 9.97417 15.6667 12C15.6667 14.0258 14.0258 15.6667 12 15.6667C9.97417 15.6667 8.33333 14.0258 8.33333 12C8.33333 9.97417 9.97417 8.33333 12 8.33333Z"   />
</svg>
