<svg width="24" height="24" viewBox="0 0 24 24"   class="eds-icon" xmlns="http://www.w3.org/2000/svg">
<path fill-rule="evenodd" clip-rule="evenodd" d="M24 12C24 18.6274 18.6274 24 12 24C5.37258 24 0 18.6274 0 12C0 5.37258 5.37258 0 12 0C18.6274 0 24 5.37258 24 12ZM16.8282 12.6351L8.18557 12.6328L11.3017 15.7495C11.5327 15.9799 11.5327 16.3556 11.3017 16.586C11.0719 16.8176 10.6957 16.8176 10.4658 16.586L6.34107 12.4619C6.22966 12.3516 6.16841 12.1999 6.16666 12.0366C6.16841 11.8651 6.24366 11.7035 6.37957 11.5869L10.4664 7.50061C10.6887 7.27778 11.0789 7.2772 11.3023 7.5012C11.5333 7.73161 11.5333 8.1067 11.3023 8.3377L8.18966 11.4504H16.8294C17.1549 11.4509 17.4209 11.7158 17.4209 12.0413C17.4215 12.1994 17.3597 12.3481 17.2477 12.4607C17.1345 12.5733 16.9857 12.6351 16.8282 12.6351Z"   />
</svg>
