<svg width="24" height="24" viewBox="0 0 24 24"   class="everli-icon" xmlns="http://www.w3.org/2000/svg">
<path d="M11.939 8.00192C11.7407 8.01575 11.5529 8.09422 11.4056 8.22472L4.29465 14.484C4.11931 14.6381 4.01378 14.854 4.00126 15.0843C3.98873 15.3146 4.07033 15.5403 4.22794 15.7119C4.38567 15.8834 4.60653 15.9866 4.84202 15.9988C5.07738 16.011 5.3083 15.9312 5.48363 15.7771L12 10.0394L18.5164 15.7771C18.6917 15.9312 18.9225 16.011 19.158 15.9988C19.3935 15.9866 19.6143 15.8834 19.7721 15.7119C19.9297 15.5403 20.0113 15.3146 19.9987 15.0843C19.9862 14.854 19.8807 14.638 19.7052 14.4838L12.5943 8.2246C12.4157 8.06644 12.1793 7.98628 11.939 8.00192Z"   />
</svg>
