<svg width="24" height="24" viewBox="0 0 24 24"   class="everli-icon" xmlns="http://www.w3.org/2000/svg">
<path d="M12 1C18.0751 1 23 5.92643 23 12C23 18.0736 18.0751 23 12 23C5.92486 23 1 18.0736 1 12C1 5.92643 5.92486 1 12 1ZM12 2.57143C6.79307 2.57143 2.57143 6.79071 2.57143 12C2.57143 17.2093 6.79307 21.4286 12 21.4286C17.2069 21.4286 21.4286 17.2093 21.4286 12C21.4286 6.79071 17.2069 2.57143 12 2.57143ZM11.9999 4.92857C12.4336 4.92857 12.7856 5.28214 12.7856 5.71429V12.4164L17.2171 16.1093C17.5502 16.3921 17.5958 16.8871 17.3176 17.2171C17.0403 17.5471 16.5445 17.5943 16.2114 17.3193L11.4971 13.3907C11.3179 13.2414 11.2142 13.0214 11.2142 12.7857V5.71429C11.2142 5.28214 11.5662 4.92857 11.9999 4.92857Z"   />
</svg>
