<svg width="24" height="24" viewBox="0 0 24 24" class="eds-icon" xmlns="http://www.w3.org/2000/svg">
<path d="M17.7289 5.00019L7.48665 5.18458C6.78132 5.19728 6.20019 5.77841 6.20468 6.46655C6.19198 7.17188 6.75255 7.73245 7.4413 7.70318L14.6613 7.57319L5.38139 16.8531C4.88576 17.3487 4.87122 18.1547 5.34935 18.6329C5.82748 19.111 6.63349 19.0965 7.12915 18.6008L16.3919 9.33805L16.279 16.5409C16.2663 17.2462 16.8269 17.8068 17.5157 17.7775C17.8516 17.7715 18.1898 17.6311 18.4291 17.3918C18.6684 17.1525 18.8081 16.8478 18.8148 16.4784L18.9998 6.20257C19.0058 5.86666 18.8776 5.5333 18.6467 5.30247C18.3982 5.12242 18.0648 4.99416 17.7289 5.00019Z" />
</svg>
