<svg width="24" height="24" viewBox="0 0 24 24" fill="none" class="everli-icon" xmlns="http://www.w3.org/2000/svg">
<path fill-rule="evenodd" clip-rule="evenodd" d="M23 12C23 5.93198 18.068 1 12 1C5.93198 1 1 5.93198 1 12C1 17.964 5.77055 22.8477 11.7211 22.9965L11.9885 22.9999L12.2674 22.9967C18.2295 22.8477 23 17.964 23 12ZM18.1256 7.71465C18.4524 8.04782 18.508 8.56495 18.2722 8.96771L18.2071 9.06584L18.1256 9.16046L11.1477 16.2737C10.9519 16.4733 10.7001 16.5833 10.4272 16.5833C10.245 16.5833 10.0718 16.5343 9.91368 16.4379L9.79806 16.3568L9.70663 16.2737L5.87565 12.3684C5.4859 11.9711 5.4859 11.3199 5.87565 10.9226C6.20247 10.5894 6.70976 10.5328 7.10485 10.7732L7.20111 10.8395L7.29393 10.9226L10.4272 14.117L16.7118 7.71025C17.124 7.31808 17.7366 7.31808 18.1256 7.71465Z" fill="#302030"/>
</svg>
