<svg width="24" height="24" viewBox="0 0 24 24"   class="everli-icon" xmlns="http://www.w3.org/2000/svg">
<path d="M18.6857 9.08333L23.7 13.4583H24V20.5417C24 21.3333 23.3143 22 22.5 22H1.5C0.685714 22 0 21.3333 0 20.5417V13.4583H0.3L5.31429 9.08333H18.6857ZM7.02857 14.4583H0.985714V20.5417C0.985714 20.7917 1.2 21.0417 1.5 21.0417H22.5C22.7571 21.0417 23.0143 20.8333 23.0143 20.5417V14.4583H16.9714C16.7143 15.9583 15.3857 17.125 13.7571 17.125H10.2429C8.61429 17.125 7.28571 15.9583 7.02857 14.4583ZM18.3 10.0417H5.7L1.8 13.4583H8.01429V13.9583C8.01429 15.1667 9.04286 16.1667 10.2429 16.1667H13.7571C15 16.1667 15.9857 15.1667 15.9857 13.9583V13.4583H22.2L18.3 10.0417ZM7.15714 2.45833L8.91429 5.125L8.05714 5.66667L6.3 3L7.15714 2.45833ZM17.0571 2.45833L17.9143 3L16.1571 5.66667L15.3 5.125L17.0571 2.45833ZM12.5143 2V5.16667H11.5286V2H12.5143Z"   />
</svg>
