<svg width="24" height="24" viewBox="0 0 24 24" fill="none" class="everli-icon" xmlns="http://www.w3.org/2000/svg">
<path fill-rule="evenodd" clip-rule="evenodd" d="M3.42857 2.27273C3.77143 1.90909 4.28571 1.90909 4.62857 2.27273L7.97143 5.63636C8.31429 6 8.31429 6.54545 7.97143 6.81818C7.8 7 7.62857 7.09091 7.37143 7.09091C7.2 7.09091 6.94286 7 6.77143 6.81818L4.8 4.81818V17.8182C4.8 18.0909 4.88571 20 7.37143 20.2727H15.1714C15.6 20.2727 16.0286 20.6364 16.0286 21.0909C16.0286 21.5455 15.6857 21.9091 15.1714 21.9091H7.28571C5.82857 21.8182 3.17143 20.8182 3.17143 17.7273V5L1.45714 6.72727C1.11429 7.09091 0.6 7.09091 0.257143 6.72727C-0.0857143 6.36364 -0.0857143 5.81818 0.257143 5.54545L3.42857 2.27273ZM8.82857 2H16.7143C18.1714 2.09091 20.8286 3.09091 20.8286 6.18182V19.0909L22.5429 17.3636C22.8857 17 23.4 17 23.7429 17.3636C24.0857 17.7273 24.0857 18.2727 23.7429 18.5455L20.5714 21.7273C20.2286 22.0909 19.7143 22.0909 19.3714 21.7273L16.0286 18.3636C15.6857 18 15.6857 17.4545 16.0286 17.1818C16.2 17 16.3714 16.9091 16.6286 16.9091C16.8 16.9091 17.0571 17 17.2286 17.1818L19.2 19.1818V6.18182C19.2 5.90909 19.1143 4 16.6286 3.72727H8.82857C8.4 3.72727 7.97143 3.36364 7.97143 2.90909C7.97143 2.45455 8.4 2 8.82857 2Z" fill="#302030"/>
</svg>
