<svg width="24" height="24" viewBox="0 0 24 24" class="eds-icon" xmlns="http://www.w3.org/2000/svg">
<path fill-rule="evenodd" clip-rule="evenodd" d="M12 24C5.37258 24 0 18.6274 0 12C0 5.37258 5.37258 0 12 0C18.6274 0 24 5.37258 24 12C24 18.6274 18.6274 24 12 24ZM11.3649 16.8282L11.3672 8.18557L8.25047 11.3017C8.02005 11.5327 7.64439 11.5327 7.41397 11.3017C7.18239 11.0719 7.18239 10.6957 7.41397 10.4658L11.5381 6.34107C11.6484 6.22966 11.8001 6.16841 11.9634 6.16666C12.1349 6.16841 12.2965 6.24366 12.4131 6.37957L16.4994 10.4664C16.7222 10.6887 16.7228 11.0789 16.4988 11.3023C16.2684 11.5333 15.8933 11.5333 15.6623 11.3023L12.5496 8.18966V16.8294C12.5491 17.1549 12.2842 17.4209 11.9587 17.4209C11.8006 17.4215 11.6519 17.3597 11.5393 17.2477C11.4267 17.1345 11.3649 16.9857 11.3649 16.8282Z" />
</svg>
