<svg width="24" height="24" viewBox="0 0 24 24"   class="eds-icon" xmlns="http://www.w3.org/2000/svg">
<path d="M12 24C13.6569 24 15 23.7664 15 23.4783C15 23.1901 13.6569 22.9565 12 22.9565C10.3431 22.9565 9 23.1901 9 23.4783C9 23.7664 10.3431 24 12 24ZM12 0C16.9706 0 21 4.05631 21 9.06003C21 14.0637 12.5 21.913 12 21.913C11.5 21.913 3 14.0637 3 9.06003C3 4.05631 7.02944 0 12 0ZM12 5.21739C10.3431 5.21739 9 6.61893 9 8.34783C9 10.0767 10.3431 11.4783 12 11.4783C13.6569 11.4783 15 10.0767 15 8.34783C15 6.61893 13.6569 5.21739 12 5.21739Z"   />
</svg>
