<svg width="24" height="24" viewBox="0 0 24 24" class="eds-icon" xmlns="http://www.w3.org/2000/svg">
<path d="M1.41609 11.1501L8.46437 4.35115C8.94974 3.88295 9.73541 3.88295 10.1975 4.35115C10.6829 4.81936 10.6829 5.57724 10.1975 6.02304L5.22909 10.8158H21.7752C22.4453 10.8158 23 11.3508 23 11.9972C23 12.6436 22.4453 13.1787 21.7752 13.1787H5.2522L10.1975 17.9714C10.6829 18.4396 10.6829 19.1975 10.1975 19.6433C9.96639 19.8663 9.64289 20 9.31936 20C8.99584 20 8.69537 19.8885 8.44117 19.6433L1.36978 12.822C1.13863 12.599 1 12.287 1 11.9749C1.04626 11.6852 1.18493 11.3731 1.41609 11.1501Z" />
</svg>
