<svg width="24" height="24" viewBox="0 0 24 24"   class="everli-icon" xmlns="http://www.w3.org/2000/svg">
<path d="M15.75 1C17.4 1 18.75 2.23906 18.75 3.75346V7.88365H21.3C22.8 7.88365 24 8.98503 24 10.2929V17.3831C24 18.7598 22.8 19.7924 21.3 19.7924H20.325V22.4081C20.325 22.6146 20.175 22.8212 19.95 22.9588C19.725 23.0277 19.425 23.0277 19.275 22.8212L15.975 19.7924H12.9C11.4 19.7924 10.275 18.691 10.275 17.3831V15.8687H9.525L5.625 19.4482C5.475 19.5858 5.175 19.6547 4.95 19.5858C4.725 19.517 4.575 19.3105 4.575 19.0352V15.8687H3.075C2.25 15.8687 1.5 15.5933 0.9 15.0426C0.3 14.4919 0 13.8724 0 13.1152V3.75346C0 3.06509 0.3 2.30789 0.9 1.82604C1.5 1.34418 2.25 1 3.075 1H15.75ZM21.3 8.98503H18.75V13.1152C18.75 14.6296 17.4 15.8687 15.75 15.8687H11.55V17.3831C11.55 17.7273 11.7 18.0714 12 18.3468C12.3 18.6221 12.675 18.7598 13.05 18.7598H16.35C16.5 18.7598 16.65 18.8286 16.8 18.8975L19.2 21.1002V19.3105C19.2 18.9663 19.5 18.7598 19.8 18.7598H21.375C22.2 18.7598 22.8 18.2091 22.8 17.4519V10.2929C22.725 9.60456 22.125 8.98503 21.3 8.98503ZM15.75 2.10138H3.075C2.625 2.10138 2.175 2.23906 1.8 2.58324C1.425 2.92742 1.275 3.34044 1.275 3.75346V13.1152C1.275 13.5282 1.5 13.9413 1.8 14.2854C2.1 14.6296 2.55 14.7673 3.075 14.7673H5.175C5.325 14.7673 5.475 14.8361 5.625 14.905C5.775 15.0426 5.775 15.1803 5.775 15.318V17.6584L8.775 14.905C8.925 14.7673 9.075 14.7673 9.225 14.7673H15.75C16.725 14.7673 17.55 14.0101 17.55 13.1152V3.75346C17.55 2.85858 16.725 2.10138 15.75 2.10138ZM9.375 11.532C9.525 11.532 9.675 11.6008 9.825 11.6697C9.975 11.8073 9.975 11.945 9.975 12.0827V12.2892C9.975 12.4957 9.825 12.7022 9.675 12.771C9.45 12.8399 9.225 12.8399 9.075 12.771C8.85 12.7022 8.775 12.4957 8.775 12.2892V12.0827C8.775 11.8073 9.075 11.532 9.375 11.532ZM9.45 3.95997C10.725 4.0288 11.775 4.786 12 5.95622C12.3 7.05761 11.7 8.22783 10.575 8.70968C10.2 8.84736 9.975 9.19154 9.975 9.53572V9.81107C9.975 10.1552 9.675 10.3618 9.375 10.3618C9 10.3618 8.775 10.0864 8.775 9.81107V9.53572C8.775 8.77852 9.3 8.02132 10.05 7.67714C10.65 7.40179 10.95 6.78226 10.875 6.16273C10.8 5.54321 10.125 5.13019 9.45 5.06135C9.075 5.06135 8.625 5.19902 8.4 5.47437C8.1 5.74972 7.95 6.0939 7.95 6.43808C7.95 6.64459 7.8 6.8511 7.65 6.91994C7.5 6.98877 7.2 6.98877 7.05 6.91994C6.9 6.8511 6.675 6.64459 6.675 6.43808C6.675 5.74972 6.975 5.13019 7.5 4.64833C8.025 4.16648 8.7 3.95997 9.45 3.95997Z" fill="#302030"/>
</svg>
