<svg width="24" height="24" viewBox="0 0 24 24" fill="none" class="everli-icon" xmlns="http://www.w3.org/2000/svg">
<path fill-rule="evenodd" clip-rule="evenodd" d="M23 12C23 18.0751 18.0751 23 12 23C5.92487 23 1 18.0751 1 12C1 5.92487 5.92487 1 12 1C18.0751 1 23 5.92487 23 12ZM10.1667 16.2488C10.1667 15.3346 10.9461 14.5942 11.9083 14.5942C12.8706 14.5942 13.65 15.3346 13.65 16.2488C13.65 17.1629 12.8706 17.9033 11.9083 17.9033C10.9461 17.9033 10.1667 17.1629 10.1667 16.2488ZM11.9083 12.9396C11.4276 12.9396 11.0375 12.569 11.0375 12.1123L10.2294 6.73821C10.1928 6.60418 10.1667 6.46603 10.1667 6.32125C10.1667 5.40709 10.9461 4.66667 11.9083 4.66667C12.8706 4.66667 13.65 5.40709 13.65 6.32125C13.65 6.46603 13.6239 6.60418 13.5873 6.73821L12.7792 12.1123C12.7792 12.569 12.389 12.9396 11.9083 12.9396Z" fill="#302030"/>
</svg>
