<svg width="24" height="24" viewBox="0 0 24 24" fill="none" class="everli-icon" xmlns="http://www.w3.org/2000/svg">
<path fill-rule="evenodd" clip-rule="evenodd" d="M23 12C23 18.0751 18.0751 23 12 23C5.92487 23 1 18.0751 1 12C1 5.92487 5.92487 1 12 1C18.0751 1 23 5.92487 23 12ZM16.2764 8.61946C16.9653 7.81083 16.4241 6.5 15.3533 6.5H12.0136C11.6608 6.5 11.3244 6.65747 11.0905 6.92985L11.07 6.95113L8.62475 10.7862C7.9519 11.6114 8.51808 12.8839 9.56839 12.8839H9.72019C10.0443 12.8839 10.233 13.2504 10.073 13.5266C10.0689 13.5308 10.0648 13.5393 10.0607 13.5483C10.0279 13.6032 9.97456 13.6968 9.93353 13.7904L8.70681 16.842C8.7027 16.8547 8.6945 16.8718 8.67398 16.9058C8.67398 16.9084 8.67242 16.9111 8.67025 16.9147C8.66891 16.9169 8.66734 16.9196 8.66578 16.9228C8.65078 16.9462 8.63236 16.9841 8.61365 17.0226C8.61188 17.0262 8.61011 17.0298 8.60834 17.0335C8.31704 17.6463 8.73142 18.4167 9.4412 18.4167C9.61762 18.4167 9.78994 18.3656 9.93764 18.2681L9.95405 18.2549L14.9959 14.1309C15.9027 13.5096 15.4846 12.0327 14.385 12.0327C14.1426 12.0327 14.0158 11.7348 14.1676 11.5518L14.1799 11.539C14.1844 11.5336 14.1895 11.5275 14.1949 11.521C14.2192 11.4921 14.2512 11.4539 14.278 11.4156L16.2104 8.70033L16.2123 8.69779C16.2244 8.68157 16.237 8.66459 16.2682 8.63223C16.2682 8.62798 16.2723 8.62372 16.2764 8.61946Z" fill="#302030"/>
</svg>
