<svg width="24" height="24" viewBox="0 0 24 24"   class="eds-icon" xmlns="http://www.w3.org/2000/svg">
<path d="M24 5.6C24 4.72 23.2727 4 22.3838 4H1.61616C0.727273 4 0 4.72 0 5.6V18.4C0 19.28 0.727273 20 1.61616 20H22.3838C23.2727 20 24 19.28 24 18.4V5.6ZM1.61616 4.96H22.303C22.6263 4.96 22.9495 5.28 22.9495 5.52V7.68H0.969697V5.6C0.969697 5.28 1.29293 4.96 1.61616 4.96ZM22.303 18.96H1.61616C1.29293 18.96 0.969697 18.8 0.969697 18.48V11.44H22.9495V18.48C22.9495 18.8 22.6263 18.96 22.303 18.96Z"   />
</svg>
