<svg width="24" height="24" viewBox="0 0 24 24"   class="everli-icon" xmlns="http://www.w3.org/2000/svg">
<path d="M11.2169 0L13.3333 0.042328C14.068 0.042328 14.6846 0.55399 14.8416 1.27369L14.8571 1.3545L15.1111 3.00529C15.4739 3.12623 15.8367 3.29036 16.1995 3.46683L16.6349 3.68254L17.9471 2.75132L18.0347 2.69802C18.2758 2.56424 18.5726 2.49735 18.836 2.49735C19.2267 2.49735 19.5814 2.64162 19.8666 2.89686L19.9365 2.96296L21.3757 4.44444C21.8641 4.97355 21.9611 5.73745 21.5539 6.35988L21.5026 6.43386L20.5291 7.78836C20.7468 8.22373 20.9023 8.65911 21.0489 9.12114L21.1217 9.3545L22.7302 9.65079C23.424 9.77324 23.9605 10.4074 23.9979 11.0977L24 11.1746L23.9577 13.291C23.9577 14.0257 23.446 14.6423 22.7263 14.7993L22.6455 14.8148L20.9947 15.0688C20.8738 15.4316 20.7096 15.7944 20.5332 16.1572L20.3175 16.5926L21.2487 17.9471C21.6557 18.5576 21.5931 19.3638 21.0985 19.8764L19.5556 21.3757C19.3016 21.6296 18.9206 21.7989 18.4974 21.7989C18.1895 21.7989 17.8817 21.729 17.6374 21.5572L17.5661 21.5026L16.2116 20.5291C15.8696 20.7157 15.5046 20.8566 15.1336 20.9854L14.7302 21.1217L14.4339 22.7302C14.3114 23.424 13.7167 23.9605 12.9912 23.9979L12.8677 24L10.7513 23.9577C10.0166 23.9577 9.40001 23.446 9.24304 22.7263L9.22751 22.6455L8.97355 20.9947C8.53817 20.8496 8.1028 20.6423 7.66742 20.4261L7.44974 20.3175L6.09524 21.2487C5.84127 21.418 5.50265 21.5026 5.20635 21.5026C4.81563 21.5026 4.46097 21.3584 4.17568 21.1031L4.10582 21.037L2.66667 19.5556C2.17827 19.0265 2.08121 18.2625 2.48839 17.6401L2.53968 17.5661L3.51323 16.254C3.29554 15.8186 3.10895 15.3832 2.95346 14.9212L2.87831 14.6878L1.26984 14.3915C0.536155 14.2285 0.0379733 13.6337 0.00207737 12.9095L0 12.8254L0.042328 10.709V10.6667C0.0830281 9.97477 0.593344 9.40027 1.27224 9.24421L1.3545 9.22751L3.00529 8.97355C3.15042 8.53817 3.35774 8.1028 3.57394 7.66742L3.68254 7.44974L2.75132 6.09524C2.34432 5.48474 2.40694 4.67856 2.90154 4.1659L4.44444 2.66667C4.69841 2.4127 5.07937 2.24339 5.50265 2.24339C5.81049 2.24339 6.11833 2.31335 6.36256 2.48508L6.43386 2.53968L7.74603 3.51323C8.18141 3.29554 8.64788 3.10895 9.11879 2.95346L9.3545 2.87831L9.65079 1.26984C9.77324 0.575964 10.368 0.0395206 11.0935 0.00208825L11.1746 0H11.2169ZM13.2487 1.56614L11.1323 1.52381C11.1323 1.52381 11.1052 1.52381 11.0943 1.54548L10.709 3.64021C10.6243 3.93651 10.4127 4.14815 10.1164 4.2328C9.3545 4.40212 8.67725 4.69841 8 5.07937C7.76417 5.23658 7.49185 5.21132 7.25081 5.07134L7.19577 5.03704L5.50265 3.7672H5.41799L3.93651 5.20635V5.29101L5.20635 7.02645C5.32357 7.22182 5.36865 7.52537 5.24172 7.77067L5.20635 7.83069C4.8254 8.46561 4.5291 9.18519 4.31746 9.90476C4.27795 10.1813 4.05409 10.3841 3.78351 10.4443L3.72487 10.455L1.60847 10.7937L1.60185 10.8188L1.57275 10.8532L1.56614 10.8783L1.52381 12.9524C1.52381 12.9795 1.54115 12.9892 1.55363 12.9927L3.64021 13.3757C3.93651 13.418 4.14815 13.6296 4.2328 13.9259C4.40212 14.6455 4.65608 15.3651 5.03704 16C5.19426 16.2358 5.16899 16.5082 5.02902 16.7492L4.99471 16.8042L3.72487 18.4974V18.582L5.16402 20.0635C5.18821 20.0877 5.2124 20.0842 5.22869 20.0768L5.24868 20.0635L6.98413 18.836C7.11111 18.7513 7.2381 18.709 7.40741 18.709C7.53439 18.709 7.66138 18.7513 7.78836 18.836C8.42328 19.2169 9.14286 19.5132 9.86243 19.7249C10.139 19.7644 10.3418 19.9882 10.402 20.2588L10.4127 20.3175L10.7513 22.4339C10.7513 22.4339 10.7513 22.461 10.773 22.4718L10.7937 22.4762L12.9101 22.5185C12.9101 22.5185 12.9371 22.5185 12.948 22.4968L12.9524 22.4762L13.345 20.3399C13.4063 20.0762 13.6085 19.8881 13.8836 19.8095C14.6032 19.6402 15.2804 19.3862 15.9153 19.0053C16.1512 18.8481 16.4235 18.8733 16.6645 19.0133L16.7196 19.0476L18.455 20.3175H18.5397L20.0212 18.8783V18.7937L18.8783 17.0582C18.709 16.8466 18.6667 16.5079 18.836 16.254C19.2169 15.619 19.5132 14.8995 19.7249 14.2222C19.7644 13.9457 19.9882 13.7429 20.2588 13.6827L20.3175 13.672L22.4339 13.3333C22.4339 13.3333 22.461 13.3333 22.4718 13.3117L22.4762 13.291V11.1323C22.4762 11.1069 22.461 11.0967 22.4488 11.0927L20.3598 10.709C20.0635 10.6667 19.8519 10.455 19.7672 10.1587C19.5979 9.43915 19.3439 8.7619 18.963 8.08466C18.8057 7.84883 18.831 7.5765 18.971 7.33546L19.0053 7.28042L20.2751 5.54497V5.46032L18.836 3.97884H18.7513L17.0159 5.16402C16.8042 5.33333 16.4656 5.37566 16.2116 5.20635C15.5767 4.8254 14.8571 4.5291 14.1799 4.31746C13.9034 4.27795 13.7006 4.05409 13.6403 3.78351L13.6296 3.72487L13.291 1.60847C13.291 1.60847 13.291 1.58138 13.2693 1.57054L13.2487 1.56614ZM11.825 6.64323L11.9788 6.6455C13.418 6.68783 14.7725 7.28042 15.746 8.25397C16.7619 9.26984 17.3122 10.6243 17.2698 12.0635C17.2275 13.4603 16.6772 14.8148 15.6614 15.7884C14.6831 16.7258 13.3909 17.2708 12.0492 17.3099L11.8942 17.3122H11.8095C8.84656 17.2698 6.47619 14.8571 6.51852 11.8942C6.56085 10.4974 7.11111 9.14286 8.12698 8.16931C9.1096 7.226 10.3477 6.68416 11.6718 6.64546L11.825 6.64323ZM11.9365 8.16931H11.8942C9.82011 8.16931 8.08466 9.90476 8.04233 11.9788C8.04233 14.0952 9.73545 15.8307 11.8519 15.873C13.9683 15.9153 15.746 14.1799 15.746 12.0635C15.746 9.94709 14.0529 8.21164 11.9365 8.16931Z" fill="#302030"/>
</svg>
