<svg width="24" height="24" viewBox="0 0 24 24"   class="eds-icon" xmlns="http://www.w3.org/2000/svg">
<path d="M20.6486 17.193C21.395 17.193 22 17.8214 22 18.5965C22 19.3232 21.4682 19.9209 20.7868 19.9928L20.6486 20H3.35135C2.60502 20 2 19.3716 2 18.5965C2 17.8698 2.53176 17.2721 3.21318 17.2002L3.35135 17.193H20.6486ZM20.6486 10.4561C21.395 10.4561 22 11.0845 22 11.8596C22 12.5863 21.4682 13.184 20.7868 13.2559L20.6486 13.2632H3.35135C2.60502 13.2632 2 12.6348 2 11.8596C2 11.133 2.53176 10.5353 3.21318 10.4634L3.35135 10.4561H20.6486ZM20.6486 4C21.395 4 22 4.62837 22 5.40351C22 6.1302 21.4682 6.7279 20.7868 6.79977L20.6486 6.80702H3.35135C2.60502 6.80702 2 6.17865 2 5.40351C2 4.67682 2.53176 4.07912 3.21318 4.00725L3.35135 4H20.6486Z"   />
</svg>
