<svg width="24" height="24" viewBox="0 0 24 24"   class="eds-icon" xmlns="http://www.w3.org/2000/svg">
<path d="M17.9832 0C18.2849 0 18.5866 0.2 18.6872 0.4V0.5V0.6V1H19.1899C19.5922 1 19.9944 1.1 20.2961 1.3L20.3966 1.4L20.4972 1.5C20.7989 1.7 21 2.1 21 2.4V2.6V2.7V22.3C21 22.8 20.7989 23.2 20.4972 23.5C20.1955 23.7 19.8939 23.9 19.4916 24H19.2905H4.91061C4.40782 24 3.90503 23.8 3.60335 23.5C3.30168 23.3 3.10056 23 3 22.6V22.4V22.3V2.8C3 2.3 3.20112 1.9 3.50279 1.6C3.80447 1.4 4.10615 1.2 4.50838 1.1H4.7095H4.91061H5.41341V0.7C5.41341 0.4 5.61453 0.2 5.9162 0.1L6.01676 0H6.11732C6.41899 0 6.72067 0.2 6.82123 0.4V0.5V0.6V1H8.43017V0.6C8.43017 0.3 8.63128 0.1 8.93296 0H9.03352C9.3352 0 9.63687 0.2 9.73743 0.4V0.5V0.6V1H11.3464V0.6C11.3464 0.3 11.5475 0.1 11.8492 0H11.9497H12.0503C12.352 0 12.6536 0.2 12.7542 0.4V0.5V0.6V1H14.3631V0.6C14.3631 0.3 14.5642 0.1 14.8659 0H14.9665H15.067C15.3687 0 15.6704 0.2 15.7709 0.4V0.5V0.6V1H17.3799V0.6C17.3799 0.3 17.581 0.1 17.8827 0H17.9832ZM19.2905 2.3H18.6872V2.7C18.6872 3 18.3855 3.3 18.0838 3.3H17.9832C17.6816 3.3 17.3799 3.1 17.2793 2.9V2.8V2.7V2.3H15.6704V2.7C15.6704 3 15.3687 3.3 15.067 3.3H14.9665C14.6648 3.3 14.3631 3.1 14.2626 2.9V2.8V2.7V2.3H12.6536V2.7C12.6536 3 12.352 3.3 12.0503 3.3H11.9497C11.648 3.3 11.3464 3.1 11.2458 2.9V2.8V2.7V2.3H9.73743V2.7C9.73743 3 9.43575 3.3 9.13408 3.3L9.03352 3.4C8.73184 3.4 8.43017 3.2 8.32961 3V2.9V2.8V2.4H6.82123V2.8C6.82123 3.1 6.51955 3.4 6.21788 3.4H6.11732C5.81564 3.4 5.51397 3.2 5.41341 3V2.9V2.8V2.4H4.91061C4.81006 2.4 4.60894 2.4 4.50838 2.5C4.50838 2.5 4.40782 2.5 4.40782 2.6V2.7V2.8V22.4C4.40782 22.5 4.40782 22.6 4.50838 22.7C4.60894 22.8 4.60894 22.8 4.7095 22.8H4.81006H4.91061H19.2905C19.3911 22.8 19.5922 22.8 19.6927 22.7C19.7933 22.6 19.7933 22.6 19.7933 22.5V22.4V22.3V2.7C19.7933 2.6 19.7933 2.5 19.6927 2.4L19.5922 2.3H19.2905ZM16.8771 17.6C17.0782 17.8 17.0782 18 17.0782 18.2C17.0782 18.4 17.0782 18.6 16.8771 18.8C16.7765 18.9 16.5754 19 16.3743 19H16.2737H7.82682C7.32402 19 7.02235 18.6 7.02235 18.2C7.02235 17.8 7.32402 17.4 7.72626 17.4H7.82682H16.3743C16.4749 17.3 16.7765 17.4 16.8771 17.6ZM16.8771 13C17.0782 13.2 17.0782 13.4 17.0782 13.6C17.0782 13.8 17.0782 14 16.8771 14.2C16.7765 14.3 16.5754 14.4 16.3743 14.4H16.2737H7.82682C7.42458 14.4 7.02235 14 7.02235 13.6C7.02235 13.2 7.32402 12.8 7.72626 12.8H7.82682H16.3743C16.4749 12.8 16.7765 12.9 16.8771 13ZM16.8771 8.5C17.0782 8.7 17.1788 8.9 17.0782 9.1C17.0782 9.3 17.0782 9.5 16.8771 9.7C16.7765 9.8 16.5754 9.9 16.3743 9.9H16.2737H7.82682C7.32402 9.9 7.02235 9.5 7.02235 9.1C7.02235 8.7 7.32402 8.3 7.72626 8.3H7.82682H16.3743C16.4749 8.3 16.7765 8.3 16.8771 8.5Z"   />
</svg>
