<svg width="24" height="24" viewBox="0 0 24 24" fill="none" class="everli-icon" xmlns="http://www.w3.org/2000/svg">
<path d="M12 23C18.0751 23 23 18.0751 23 12C23 5.92486 18.0751 1 12 1C5.92486 1 1 5.92486 1 12C1 18.0751 5.92486 23 12 23ZM12 2.57143C17.2069 2.57143 21.4286 6.79307 21.4286 12C21.4286 17.2069 17.2069 21.4286 12 21.4286C6.79307 21.4286 2.57143 17.2069 2.57143 12C2.57143 6.79307 6.79307 2.57143 12 2.57143ZM12 5.5C11.5515 5.5 11.1875 5.864 11.1875 6.3125V11.1875H6.3125C5.864 11.1875 5.5 11.5515 5.5 12C5.5 12.4485 5.864 12.8125 6.3125 12.8125H11.1875V17.6875C11.1875 18.1344 11.5515 18.5 12 18.5C12.4485 18.5 12.8125 18.1344 12.8125 17.6875V12.8125H17.6875C18.136 12.8125 18.5 12.4485 18.5 12C18.5 11.5515 18.136 11.1875 17.6875 11.1875H12.8125V6.3125C12.8125 5.864 12.4485 5.5 12 5.5Z" fill="#302030"/>
</svg>
