<svg width="24" height="24" viewBox="0 0 24 24"   class="everli-icon" xmlns="http://www.w3.org/2000/svg">
<path d="M18.9763 1C21.0533 1 22.7758 2.57712 22.9799 4.61441L22.9949 4.81297L23 5.01565V21.307C23 22.5767 21.6528 23.3748 20.5495 22.8207L20.4323 22.7561L20.3168 22.68L16.4028 19.8608H5.0237C2.94672 19.8608 1.22424 18.2837 1.02007 16.2464L1.00509 16.0478L1 15.8451V5.01565C1 2.94268 2.58042 1.22376 4.62168 1.02003L4.82062 1.00508L5.0237 1H18.9763ZM18.9763 2.54707H5.0237L4.86179 2.55226C3.68405 2.62801 2.72622 3.52437 2.57198 4.68646L2.55598 4.84652L2.55029 5.01068V15.8451L2.55549 16.0067C2.6314 17.1823 3.52963 18.1382 4.69392 18.2921L4.85429 18.308L5.01875 18.3136L16.8989 18.3137L21.2158 21.4275L21.4497 21.5944V5.01565L21.4445 4.85306C21.3609 3.56333 20.29 2.54707 18.9763 2.54707ZM13.5503 11.8295C14.0583 11.8295 14.4734 12.2437 14.4734 12.751C14.4734 13.1734 14.1839 13.5366 13.7784 13.6427L13.6651 13.6651L13.5503 13.6725H7.34914C6.84115 13.6725 6.42601 13.2582 6.42601 12.751C6.42601 12.3286 6.71555 11.9654 7.12101 11.8593L7.23433 11.8369L7.34914 11.8295H13.5503ZM16.6509 7.18827C17.1589 7.18827 17.574 7.60255 17.574 8.10979C17.574 8.5808 17.216 8.97165 16.7582 9.02508L16.6509 9.0313H7.34914C6.84115 9.0313 6.42601 8.61703 6.42601 8.10979C6.42601 7.63878 6.78396 7.24793 7.24182 7.19449L7.34914 7.18827H16.6509Z" fill="#302030"/>
</svg>
