<svg width="24" height="24" viewBox="0 0 24 24"   class="everli-icon" xmlns="http://www.w3.org/2000/svg">
<path d="M15.7077 0C16.8083 0 17.7087 0.9 17.7087 2V10.8L20.2099 8.3C20.9103 7.6 21.8107 7.6 22.6111 8.3L23.5115 9.2C24.1118 9.8 24.2119 10.9 23.5115 11.6L17.7087 17.4V22C17.7087 23.1 16.8083 24 15.7077 24H2.00098C0.900442 24 0 23.1 0 22V5.1C0 4.6 0.200098 4.1 0.600295 3.7L3.70182 0.6C4.00196 0.2 4.50221 0 5.1025 0H15.7077ZM15.7077 1.3H5.20255V4.5C5.20255 4.9 4.90241 5.2 4.50221 5.2H1.30064V22C1.30064 22.4 1.60079 22.7 2.00098 22.7H15.7077C16.1079 22.7 16.4081 22.4 16.4081 22V18.7L15.0074 20C14.9073 20.1 14.7072 20.2 14.5071 20.2H12.1059C11.7057 20.2 11.4056 19.9 11.4056 19.5V17.1C11.4056 16.9 11.5056 16.8 11.6057 16.6L16.208 12V2C16.308 1.6 16.0079 1.3 15.7077 1.3ZM9.50467 18.9C9.90486 18.9 10.205 19.2 10.205 19.6C10.205 20 9.90486 20.3 9.50467 20.3H3.30162C2.90142 20.3 2.60128 20 2.60128 19.6C2.60128 19.2 2.90142 18.9 3.30162 18.9H9.50467ZM19.3095 11L12.8063 17.5V18.9H14.207L20.7102 12.4L19.3095 11ZM9.50467 15.1C9.90486 15.1 10.205 15.4 10.205 15.8C10.205 16.2 9.90486 16.5 9.50467 16.5H3.30162C2.90142 16.5 2.60128 16.2 2.60128 15.8C2.60128 15.4 2.90142 15.1 3.30162 15.1H9.50467V15.1ZM14.307 11.3C14.7072 11.3 15.0074 11.6 15.0074 12C15.0074 12.4 14.7072 12.7 14.307 12.7H3.30162C2.90142 12.7 2.60128 12.4 2.60128 12C2.60128 11.6 2.90142 11.3 3.30162 11.3H14.307ZM21.6106 9.2C21.5106 9.1 21.3105 9.1 21.1104 9.2L20.31 10L21.7107 11.4L22.6111 10.5C22.7111 10.4 22.7111 10.1 22.6111 10L21.6106 9.2ZM14.307 7.6C14.7072 7.6 15.0074 7.9 15.0074 8.3C15.0074 8.7 14.7072 9 14.307 9H3.30162C3.00147 8.9 2.70133 8.6 2.70133 8.2C2.70133 7.8 3.00147 7.5 3.40167 7.5H14.307V7.6ZM14.307 3.8C14.7072 3.8 15.0074 4.1 15.0074 4.5C15.0074 4.9 14.7072 5.2 14.307 5.2H6.90339C6.50319 5.2 6.20304 4.9 6.20304 4.5C6.20304 4.1 6.50319 3.8 6.90339 3.8H14.307ZM3.80187 2.3L2.30113 3.8H3.90192V2.3H3.80187Z"   />
</svg>
