<svg width="24" height="24" viewBox="0 0 24 24"   class="eds-icon" xmlns="http://www.w3.org/2000/svg">
<path d="M21.3705 19.8373C21.3705 20.6798 20.6872 21.3653 19.8464 21.3653H16.0867V14.8372C16.0867 13.6994 15.1644 12.7742 14.0303 12.7742H9.9686C8.83449 12.7742 7.91221 13.6994 7.91221 14.8372V21.3653H4.14705C3.31059 21.3653 2.62947 20.683 2.62947 19.8439V12.4723C2.62947 11.9579 2.82175 11.4675 3.17154 11.0937L3.76467 10.4561C5.67875 8.39963 9.24077 4.57217 10.9441 3.02353C11.2331 2.76088 11.6209 2.63011 12.0054 2.63011C12.3878 2.63011 12.7691 2.75979 13.0494 3.01917C15.0047 4.8261 18.1692 8.23289 20.0604 10.2687L20.8274 11.0926C21.1772 11.4675 21.3705 11.959 21.3705 12.4734V19.8373ZM9.54167 21.3653V14.8372C9.54167 14.6007 9.73395 14.4089 9.9686 14.4089H14.0303C14.266 14.4089 14.4572 14.6007 14.4572 14.8372V21.3653H9.54167ZM22.0169 9.97443L21.2532 9.1527C19.3456 7.10056 16.1541 3.66544 14.1531 1.8171C12.9766 0.729453 11.0462 0.727273 9.85127 1.81274C8.09688 3.40606 4.50444 7.26622 2.57407 9.33906L1.98203 9.97552C1.34871 10.6534 1 11.5405 1 12.4723V19.8439C1 21.5843 2.41112 23 4.14705 23H7.91221H16.0867H19.8464C21.5856 23 23 21.5821 23 19.8373V12.4734C23 11.5416 22.6513 10.6534 22.0169 9.97443Z"   />
</svg>
