<svg width="24" height="24" viewBox="0 0 24 24"   class="everli-icon" xmlns="http://www.w3.org/2000/svg">
<path d="M15.9981 11.939C15.9843 11.7407 15.9058 11.5529 15.7753 11.4056L9.51603 4.29465C9.36189 4.11931 9.146 4.01378 8.91569 4.00126C8.68538 3.98873 8.45966 4.07033 8.28806 4.22794C8.11657 4.38567 8.01336 4.60653 8.00123 4.84202C7.98898 5.07738 8.06878 5.3083 8.22293 5.48363L13.9606 12L8.22293 18.5164C8.06878 18.6917 7.98898 18.9225 8.00123 19.158C8.01336 19.3935 8.11657 19.6143 8.28806 19.7721C8.45967 19.9297 8.68538 20.0113 8.91569 19.9987C9.146 19.9862 9.362 19.8807 9.51616 19.7052L15.7754 12.5943C15.9336 12.4157 16.0137 12.1793 15.9981 11.939Z" fill="#302030"/>
</svg>
