<svg width="24" height="24" viewBox="0 0 24 24" fill="none" class="everli-icon" xmlns="http://www.w3.org/2000/svg">
<path d="M17.7 0.23898C19.2 0.738161 19.9 2.33554 19.4 3.83308C19.2 4.33226 19 4.83144 18.6 5.23079L18.4 5.43046H22C23 5.43046 23.8 6.12931 24 7.02784V7.22751V7.42718V11.3208C24 12.1195 23.5 12.7185 22.8 13.018H22.7V22.2029C22.7 23.1015 22 23.9001 21.1 24H21H20.8H3.1C2.1 24 1.3 23.2013 1.2 22.3028V22.1031V12.9182H1.1C0.5 12.7185 0.1 12.1195 0 11.5205V11.3208V11.1211V7.32735C0 6.32899 0.8 5.5303 1.7 5.43046H1.9H5.5C5.2 5.13095 4.9 4.73161 4.7 4.33226L4.6 4.03275L4.5 3.83308C4.1 2.33554 4.8 0.738161 6.3 0.23898C6.7 0.139144 7.1 0.0393079 7.5 0.0393079C7.9 0.0393079 8.3 0.0393079 8.7 0.139144C9.4 0.338816 10.2 0.738161 10.8 1.23734C11.3 1.63669 11.7 2.2357 12 2.73488V2.93456L12.1 2.83472C12.3 2.43538 12.6 2.03603 12.9 1.73652L13 1.53685L13.2 1.33718C13.7 0.837997 14.3 0.538489 15 0.23898L15.3 0.139144C16.1 -0.0605283 16.9 -0.0605283 17.7 0.23898ZM21.3 13.1178H15.1V22.6023H20.8H20.9C21 22.6023 21.1 22.5024 21.2 22.4026V22.3028V22.2029L21.3 13.1178ZM8.9 13.1178H2.7V22.1031V22.2029C2.7 22.3028 2.8 22.4026 2.9 22.5024H3H3.1H8.8V13.1178H8.9ZM13.7 13.1178H10.4V22.6023H13.7V13.1178ZM7.8 6.928H1.9H1.8C1.7 6.928 1.6 7.02784 1.5 7.12768V7.22751V7.32735V11.221V11.3208C1.5 11.4206 1.6 11.5205 1.7 11.6203H1.8H1.9H7.8V6.928V6.928ZM14.8 6.928H9.2V11.6203H14.7V6.928H14.8ZM16.2 6.928V11.6203H22.1H22.2C22.3 11.6203 22.4 11.5205 22.5 11.4206V11.3208V11.221V7.32735V7.22751C22.5 7.12767 22.4 7.02784 22.3 6.928H22.2H22.1H16.2ZM16.5 1.53685H16.3H16.1C15.5 1.63669 14.9 1.9362 14.3 2.43538C13.5 3.03439 13 4.03275 12.8 5.03112V5.33062V5.43046H15.8H16C16.9 5.13095 17.6 4.4321 17.9 3.73325L18 3.53357V3.43374V3.23407C18.2 2.43538 17.9 1.83636 17.2 1.63669C17 1.53685 16.8 1.53685 16.6 1.53685H16.5ZM7.5 1.53685H7.3H7.1H6.9L6.7 1.63669H6.6C6 1.93619 5.7 2.63505 6 3.43374C6.2 4.13259 6.9 4.93128 7.8 5.33062L8 5.43046L8.2 5.5303H11.2V5.43046V5.13095C11 4.23243 10.7 3.43374 10.1 2.83472L9.9 2.53521L9.7 2.43538L9.5 2.2357C9.1 1.93619 8.6 1.63669 8.1 1.53685H7.9H7.7H7.5Z" fill="#302030"/>
</svg>
