<svg class="eds-icon" width="25" height="25" viewBox="0 0 25 25" fill="none" xmlns="http://www.w3.org/2000/svg">
<path d="M5.84999 9.47501C6.22499 9.55001 6.59999 9.32501 6.82499 9.02501C7.04999 8.72501 7.12499 8.35001 7.2 7.97501C6.82499 8.05001 6.44999 8.20001 6.22499 8.50001C5.99999 8.72501 5.77499 9.10001 5.84999 9.47501Z" fill="#302030"/>
<path d="M6.28842 9.74628C6.51781 9.65958 6.80771 9.55001 7.12499 9.55001C7.34999 9.55001 7.95 9.62501 8.325 10.15C8.325 10.1674 8.28877 10.2009 8.2331 10.2523C8.04848 10.4229 7.64999 10.7911 7.64999 11.425C7.64999 12.475 8.47499 12.775 8.47499 12.775C8.47499 12.775 8.32499 13.225 8.02499 13.6C7.79999 14.05 7.49999 14.425 7.04999 14.425C6.81653 14.4639 6.68401 14.4019 6.53721 14.3332C6.40105 14.2695 6.25262 14.2 5.99999 14.2C5.76475 14.2 5.59099 14.282 5.42515 14.3602C5.27375 14.4317 5.12895 14.5 4.94999 14.5C4.5471 14.5 4.26445 14.1393 3.99438 13.7946C3.96281 13.7543 3.9314 13.7143 3.89999 13.675C3.37499 12.85 2.92499 11.35 3.52499 10.375C3.82499 9.85001 4.34999 9.55001 4.87499 9.55001C5.08631 9.55001 5.32144 9.64527 5.52671 9.72843C5.68571 9.79285 5.82678 9.85001 5.92499 9.85001C6.01401 9.85001 6.13825 9.80305 6.28842 9.74628Z" fill="#302030"/>
<path fill-rule="evenodd" clip-rule="evenodd" d="M10.2 14.425V8.42501L12.375 8.50001C13.5 8.50001 14.325 9.32501 14.325 10.45C14.325 11.575 13.575 12.4 12.375 12.4H11.1V14.425H10.2ZM12.15 9.25001H11.1V11.65H12.15C12.975 11.65 13.425 11.2 13.425 10.45C13.425 9.70001 12.975 9.25001 12.15 9.25001Z" fill="#302030"/>
<path fill-rule="evenodd" clip-rule="evenodd" d="M17.4 13.75C17.175 14.2 16.65 14.5 16.05 14.5C15.15 14.5 14.625 13.975 14.625 13.225C14.625 12.475 15.225 12.025 16.275 11.95L17.4 11.875V11.575C17.4 11.125 17.1 10.825 16.5 10.825C15.975 10.825 15.675 11.05 15.6 11.425H14.775C14.775 10.675 15.525 10.075 16.5 10.075C17.55 10.075 18.225 10.6 18.225 11.5V14.5H17.4V13.75ZM15.45 13.15C15.45 13.525 15.75 13.75 16.275 13.75C16.95 13.75 17.4 13.375 17.4 12.775V12.475L16.35 12.55C15.75 12.55 15.45 12.775 15.45 13.15Z" fill="#302030"/>
<path d="M21.15 14.65C20.775 15.7 20.325 16.075 19.425 16.075H19.275V15.325H19.575C19.95 15.325 20.175 15.175 20.325 14.725L20.4 14.425L18.825 10.075H19.8L20.85 13.6L21.9 10.075H22.8L21.15 14.65Z" fill="#302030"/>
<path fill-rule="evenodd" clip-rule="evenodd" d="M7.27499 24.1H18.525C22.05 24.1 24.9 21.25 24.9 17.725V6.47501C24.9 2.95001 22.05 0.100006 18.525 0.100006H7.27499C3.74999 0.100006 0.899994 2.95001 0.899994 6.47501V17.725C0.899994 21.25 3.74999 24.1 7.27499 24.1ZM1.64999 6.47501C1.64999 3.40001 4.19999 0.850006 7.27499 0.850006H18.525C21.6 0.850006 24.15 3.40001 24.15 6.47501V17.725C24.15 20.8 21.6 23.35 18.525 23.35H7.27499C4.19999 23.35 1.64999 20.8 1.64999 17.725V6.47501Z" fill="#302030"/>
</svg>
