<svg class="eds-icon" width="24" height="24" viewBox="0 0 24 24" fill="none" xmlns="http://www.w3.org/2000/svg">
<path d="M16.8933 0C17.0533 1.40049 16.4733 2.82099 15.6133 3.83134C14.7533 4.84169 13.3533 5.63197 11.9733 5.53194C11.7833 4.15145 12.4833 2.72095 13.2733 1.82064C14.1633 0.80028 15.6533 0.0500175 16.8933 0ZM16.5633 5.78202L16.8633 5.80203C17.6633 5.83204 19.9133 6.12214 21.3533 8.18287C21.2733 8.23288 20.0533 8.93313 19.2933 10.3436C18.9433 10.9938 18.6933 11.7941 18.7033 12.7545C18.7333 16.3857 21.9633 17.5962 22.0033 17.6062C21.9733 17.6862 21.4833 19.3268 20.3033 21.0174C19.2833 22.4779 18.2133 23.9384 16.5433 23.9684C14.9033 23.9984 14.3733 23.0181 12.4833 23.0181C10.6033 23.0181 10.0133 23.9384 8.46329 23.9984C6.85329 24.0584 5.62329 22.4179 4.58329 20.9573C2.79329 18.4365 1.37329 14.155 2.28329 10.6737C2.45329 10.0335 2.69329 9.4333 3.02329 8.8631C4.09329 7.03246 6.02329 5.88206 8.10329 5.85205C9.69329 5.82204 11.1833 6.90242 12.1533 6.90242C13.1233 6.90242 14.9433 5.61197 16.8533 5.80203L16.5633 5.78202Z" />
</svg>
