<svg class="eds-icon" width="56" height="24" viewBox="0 0 56 24" xmlns="http://www.w3.org/2000/svg">
<path fill-rule="evenodd" clip-rule="evenodd" d="M2.30681 13.0094C3.64537 16.4614 9.28848 22.9808 14.5753 22.9808C16.8961 22.9808 17.5605 20.8749 17.8205 19.5191C18.9761 19.6057 20.3436 19.3941 21.2777 18.7114C24.7541 16.1729 24.6385 10.4132 23.3481 8.24008C22.7029 7.15351 21.8555 7.06697 21.268 7.33621C20.5073 7.7016 20.3243 8.67278 20.1221 9.80741C20.0258 10.3555 19.7465 11.2113 19.525 11.5767C18.9804 10.9391 18.1153 8.55532 17.5547 7.0106C17.5404 6.97113 17.5263 6.93222 17.5124 6.89389C16.1738 3.16305 15.2012 0.509151 13.593 1.07647C12.1999 1.56574 12.5418 3.67263 12.8781 5.74502L12.8804 5.75926C12.9478 6.14388 13.0249 6.62466 13.073 7.04774C12.7551 6.57584 12.3911 5.9355 12.0907 5.40683C12.0544 5.34302 12.0191 5.28084 11.9848 5.22078C10.6752 2.91304 9.73145 1.38417 8.59512 1.07647C8.2003 0.970698 7.80547 1.02839 7.4588 1.23032C6.12987 2.0188 7.12175 4.16307 8.27734 6.63427C8.63364 7.40352 9.10551 8.43239 9.33662 9.14394C9.02557 8.80595 8.66238 8.33778 8.37088 7.96204C8.35555 7.94227 8.34041 7.92275 8.32549 7.90353L8.31323 7.88778C7.07481 6.29649 5.79809 4.65599 4.47354 5.42271C3.03868 6.24965 4.18464 8.29777 5.40763 10.4613C5.44007 10.5201 5.47401 10.5814 5.50911 10.6449C5.87008 11.2975 6.35344 12.1714 6.57285 12.7498C6.24543 12.4805 5.85061 12.0767 5.57134 11.7882C5.54884 11.7651 5.52629 11.7419 5.50369 11.7187C4.51096 10.6981 3.43048 9.58735 2.45126 10.4805C1.90236 10.9805 1.85421 11.8363 2.30681 13.0094ZM5.00318 14.8267C3.96315 13.3748 3.60685 12.3459 3.51055 11.8363C3.82833 12.0863 4.26168 12.5286 4.55057 12.8267C4.57482 12.8516 4.59911 12.8766 4.62345 12.9016C5.60428 13.9103 6.65581 14.9917 7.67065 14.2787C8.80698 13.4806 7.88251 11.8267 6.70767 9.73049C6.2358 8.89393 5.40763 7.41314 5.31134 6.78812C5.76158 7.03989 6.5739 8.07359 7.0554 8.6863C7.08882 8.72883 7.12064 8.76933 7.15064 8.80739C8.21956 10.192 8.92254 11.0382 9.74108 11.0863C10.0781 11.1055 10.3863 10.9805 10.627 10.7401C11.4359 9.91319 10.7137 8.35546 9.62552 6.00926C9.61544 5.98745 9.60518 5.96526 9.59475 5.9427C9.12713 4.93134 8.32507 3.19666 8.30623 2.54765C8.87932 2.81589 9.93534 4.63887 10.5529 5.70501C10.5995 5.78542 10.6436 5.86153 10.6848 5.93234L10.6992 5.95773C11.8275 7.95324 12.5766 9.27815 13.6027 9.1824C13.8819 9.15355 14.1419 9.01894 14.3153 8.78816C14.7582 8.22084 14.6331 7.2689 14.3442 5.49964L14.3386 5.46607C14.212 4.69824 13.9796 3.28844 14.0745 2.66304C14.6619 3.42267 15.5479 5.8458 16.1064 7.38429C17.3294 10.769 18.0709 12.7017 19.1398 13.0959C19.4673 13.2209 19.9391 13.1825 20.2473 13.0094C21.1429 12.4902 21.374 11.2594 21.5858 10.067C21.5975 10.0071 21.6099 9.94194 21.6229 9.8734C21.6955 9.49068 21.7878 9.00397 21.894 8.75932C22.1444 9.01894 22.5392 9.86511 22.674 11.2498C22.8859 13.3556 22.3081 16.1056 20.3917 17.4999C19.8621 17.8941 18.928 18.0864 18.0035 18.0384C18.0902 16.3556 17.7242 14.5767 17.002 13.3267C16.5783 12.5959 15.8946 12.0767 15.076 11.8555C14.2575 11.6344 13.4004 11.7498 12.6686 12.1728C11.9367 12.5959 11.4167 13.2786 11.1952 14.096C10.9737 14.9133 11.0893 15.7691 11.513 16.4999C12.3219 17.8941 14.0553 18.9038 16.3375 19.3172C16.0775 20.6153 15.6538 21.4903 14.5849 21.4903C11.1856 21.4903 7.22768 17.9518 5.00318 14.8267ZM13.4197 13.4709C13.6797 13.3267 13.9686 13.2498 14.2575 13.2498C14.4019 13.2498 14.5464 13.269 14.6908 13.3075C15.1242 13.4229 15.4901 13.7017 15.7116 14.0863C16.1835 14.9037 16.5783 16.3172 16.5205 17.8364C14.7294 17.4999 13.3715 16.7402 12.8034 15.7595C12.5819 15.3748 12.5241 14.9229 12.6397 14.4902C12.7552 14.0575 13.0345 13.6921 13.4197 13.4709Z" />
<path d="M36.3966 8.53817C36.3966 8.33624 36.5025 8.22085 36.7144 8.22085H37.687C37.8892 8.22085 38.0048 8.32662 38.0048 8.53817V17.2787C38.0048 17.846 38.2552 18.0576 38.6115 18.0576C38.8214 18.0576 38.951 18.0042 39.0576 17.9603C39.132 17.9297 39.1951 17.9037 39.2663 17.9037C39.3722 17.9037 39.4204 17.9711 39.4204 18.1057V19.048C39.4204 19.173 39.3722 19.2499 39.2663 19.2788C39.0159 19.3845 38.5633 19.4326 38.1877 19.4326C37.3211 19.4326 36.3966 18.9326 36.3966 17.6441V8.53817Z" />
<path fill-rule="evenodd" clip-rule="evenodd" d="M27.826 12.2402C27.826 12.0382 27.9319 11.9229 28.1438 11.9229H28.9431C29.1164 11.9229 29.2223 11.9998 29.2609 12.144L29.4342 12.7402C29.9157 12.1921 30.7053 11.769 31.755 11.769C33.6713 11.769 35.0773 13.0479 35.0773 15.6056C35.0773 18.1634 33.575 19.4422 31.4854 19.4422C30.6187 19.4422 29.9157 19.1922 29.4342 18.8172V22.6827C29.4342 22.8846 29.3283 23 29.1164 23H28.1438C27.9416 23 27.826 22.8942 27.826 22.6827V12.2402ZM29.4246 16.4999C29.4246 16.9806 29.492 17.2403 29.9061 17.5672C30.2238 17.8364 30.6764 18.0672 31.4276 18.0672C32.5735 18.0672 33.4017 17.1153 33.4017 15.596C33.4017 14.1729 32.6987 13.1536 31.4565 13.1536C30.7535 13.1536 30.2335 13.4806 29.8772 13.9325C29.5786 14.2883 29.4246 14.6825 29.4246 15.2306V16.4999Z" />
<path d="M40.6915 11.9228C40.4797 11.9228 40.3737 12.0382 40.3737 12.2402H40.393V16.9229C40.393 18.423 41.433 19.423 43.0605 19.423C44.1101 19.423 44.7938 19.2499 45.4872 18.6441V18.9615C45.4872 19.173 45.6028 19.2788 45.805 19.2788H46.7776C46.9895 19.2788 47.0954 19.1634 47.0954 18.9615V12.2305C47.0954 12.019 46.9798 11.9132 46.7776 11.9132H45.805C45.5931 11.9132 45.4872 12.0286 45.4872 12.2305V16.1922C45.4872 16.6826 45.4198 16.9903 45.0635 17.3845C44.6012 17.8653 44.0716 18.0576 43.3975 18.0576C42.5116 18.0576 41.9819 17.5768 41.9819 16.6345V12.2402C41.9819 12.0286 41.8664 11.9228 41.6641 11.9228H40.6915Z" />
<path d="M48.8769 16.8556C48.9732 16.8076 49.0502 16.7787 49.1273 16.7787C49.2332 16.7787 49.3295 16.846 49.4258 16.971C50.0036 17.7691 50.697 18.0672 51.3036 18.0672C51.9777 18.0672 52.334 17.7403 52.334 17.221C52.334 16.6153 51.9296 16.4037 50.6103 16.0287C49.4065 15.7018 48.4339 15.0864 48.4339 13.8364C48.4339 12.4709 49.7051 11.769 50.957 11.769C52.1029 11.769 52.8829 12.0959 53.557 12.7113C53.663 12.7883 53.7015 12.8556 53.7015 12.9806C53.7015 13.0479 53.6726 13.1248 53.6052 13.2017L53.1333 13.7787C53.0563 13.8748 52.96 13.9229 52.8637 13.9229C52.7866 13.9229 52.6903 13.894 52.6133 13.8267C51.9874 13.3267 51.4962 13.1536 50.9184 13.1536C50.3503 13.1536 50.0229 13.4325 50.0229 13.7979C50.0229 14.2787 50.3792 14.5383 51.5733 14.8268C53.2296 15.2402 54 15.8556 54 17.1826C54 18.3749 53.0274 19.4326 51.2266 19.4326C49.9555 19.4326 48.8095 18.9038 48.0776 17.7691C48.0295 17.6922 48.0102 17.6249 48.0102 17.548C48.0102 17.4037 48.0776 17.298 48.2124 17.221L48.8769 16.8556Z" />
</svg>
