<svg class="eds-icon" width="24" height="24" viewBox="0 0 24 24" xmlns="http://www.w3.org/2000/svg">
<path d="M22 21H2C0.9 21 0 20.1 0 19V5C0 3.9 0.9 3 2 3H22C23.1 3 24 3.9 24 5V19C24 20.1 23.1 21 22 21Z" fill="#F7F6F7"/>
<path d="M10.5 15.4H8.79999L9.89999 8.60001H11.6L10.5 15.4Z" fill="#00579F"/>
<path d="M17 8.8C16.6 8.7 16.1 8.5 15.4 8.5C13.6 8.5 12.4 9.4 12.4 10.7C12.4 11.7 13.3 12.2 14 12.5C14.7 12.8 14.9 13 14.9 13.3C14.9 13.8 14.3 14 13.8 14C13.1 14 12.7 13.9 12.1 13.6L11.9 13.5L11.7 15C12.1 15.2 12.9 15.4 13.7 15.4C15.6 15.4 16.8 14.5 16.8 13.1C16.8 12.3 16.3 11.7 15.3 11.3C14.7 11 14.3 10.8 14.3 10.5C14.3 10.2 14.6 9.9 15.3 9.9C15.9 9.9 16.3 10 16.6 10.2L16.8 10.3L17 8.8Z" fill="#00579F"/>
<path d="M19.4 13C19.5 12.6 20.1 11.1 20.1 11.1C20.1 11.1 20.2 10.7 20.3 10.5L20.4 11.1C20.4 11.1 20.7 12.7 20.8 13.1C20.6 13 19.7 13 19.4 13ZM21.6 8.60001H20.2C19.8 8.60001 19.5 8.70001 19.3 9.20001L16.7 15.4H18.6C18.6 15.4 18.9 14.6 19 14.4C19.2 14.4 21 14.4 21.3 14.4C21.4 14.6 21.5 15.4 21.5 15.4H23L21.6 8.60001Z" fill="#00579F"/>
<path d="M7.29999 8.60001L5.59999 13.2L5.39999 12.3C4.99999 11.2 3.99999 10.1 2.89999 9.50001L4.49999 15.4H6.39999L9.19999 8.60001H7.29999Z" fill="#00579F"/>
<path d="M3.9 8.60001H1V8.70001C3.2 9.30001 4.7 10.6 5.3 12.2L4.7 9.20001C4.6 8.80001 4.3 8.60001 3.9 8.60001Z" fill="#FAA61A"/>
</svg>
