<svg class="eds-icon" width="24" height="24" viewBox="0 0 24 24" xmlns="http://www.w3.org/2000/svg">
<path d="M22 21H2C0.9 21 0 20.1 0 19V5C0 3.9 0.9 3 2 3H22C23.1 3 24 3.9 24 5V19C24 20.1 23.1 21 22 21Z" fill="#003664"/>
<path d="M14.3 7.79999H9.70001V16.1H14.3V7.79999Z" fill="#FF5F00"/>
<path d="M9.99999 12C9.99999 10.3 10.8 8.80001 12 7.80001C11.1 7.10001 9.99999 6.70001 8.69999 6.70001C5.79999 6.70001 3.39999 9.10001 3.39999 12C3.39999 14.9 5.79999 17.3 8.69999 17.3C9.89999 17.3 11.1 16.9 12 16.2C10.8 15.2 9.99999 13.7 9.99999 12Z" fill="#EB001B"/>
<path d="M20.6 12C20.6 14.9 18.2 17.3 15.3 17.3C14.1 17.3 12.9 16.9 12 16.2C13.2 15.2 14 13.7 14 12C14 10.3 13.2 8.80001 12 7.80001C12.9 7.10001 14 6.70001 15.3 6.70001C18.2 6.70001 20.6 9.10001 20.6 12Z" fill="#F79E1B"/>
</svg>
