<svg class="eds-icon" width="24" height="24" viewBox="0 0 24 24" xmlns="http://www.w3.org/2000/svg">
<path d="M23 12.1264C23 11.3678 23 10.6092 22.7365 9.85059H12.1976V14.1494H18.2575C17.994 15.4138 17.2036 16.6782 15.8862 17.4368V20.2184H19.5748C21.6826 18.4483 23 15.4138 23 12.1264Z" fill="#4285F4"/>
<path d="M12.1977 23C15.3594 23 17.7306 21.9885 19.5749 20.4713L15.8863 17.6896C14.8324 18.4483 13.515 18.7011 11.9342 18.7011C9.036 18.7011 6.40127 16.6782 5.61085 14.1494H2.1857V16.931C4.03001 20.4713 7.98211 23 12.1977 23Z" fill="#34A853"/>
<path d="M5.87425 14.1494C5.34731 12.885 5.34731 11.3678 5.87425 9.85055V7.06894H2.18563C0.60479 10.1034 0.60479 13.8965 2.18563 16.931L5.87425 14.1494Z" fill="#FBBC04"/>
<path d="M12.1977 5.29885C13.7785 5.29885 15.3593 5.8046 16.4132 6.8161L19.5749 3.78161C17.4671 2.01149 14.8324 1 11.9342 1C7.71862 1 3.76652 3.27586 1.92221 7.06897L5.61083 9.85058C6.66473 7.32185 9.29946 5.29885 12.1977 5.29885Z" fill="#EA4335"/>
</svg>
