<svg class="eds-icon" width="24" height="24" viewBox="0 0 24 24" fill="none" xmlns="http://www.w3.org/2000/svg">
<path d="M17.625 24H6.375C2.85 24 0 21.15 0 17.625V6.375C0 2.85 2.85 0 6.375 0H17.625C21.15 0 24 2.85 24 6.375V17.625C24 21.15 21.15 24 17.625 24ZM6.375 0.75C3.3 0.75 0.75 3.3 0.75 6.375V17.625C0.75 20.7 3.3 23.25 6.375 23.25H17.625C20.7 23.25 23.25 20.7 23.25 17.625V6.375C23.25 3.3 20.7 0.75 17.625 0.75H6.375Z" fill="#C1BEC1"/>
<path d="M11.475 11.925V14.175H10.725V8.54999H12.6C13.05 8.54999 13.5 8.69999 13.8 9.07499C14.1 9.37499 14.325 9.82499 14.325 10.275C14.325 10.725 14.175 11.175 13.8 11.475C13.5 11.775 13.05 11.925 12.6 11.925H11.475ZM11.475 9.22499V11.25H12.675C12.975 11.25 13.2 11.175 13.35 10.95C13.5 10.8 13.65 10.5 13.65 10.275C13.65 10.05 13.575 9.74999 13.35 9.59999C13.2 9.37499 12.9 9.29999 12.675 9.29999L11.475 9.22499Z" fill="#5F6368"/>
<path d="M16.05 10.2C16.575 10.2 17.025 10.35 17.325 10.65C17.625 10.95 17.775 11.325 17.775 11.85V14.25H17.1V13.725C16.8 14.175 16.425 14.4 15.9 14.4C15.45 14.4 15.15 14.25 14.85 14.025C14.55 13.8 14.4 13.425 14.4 13.05C14.4 12.675 14.55 12.3 14.85 12.075C15.15 11.85 15.525 11.7 16.05 11.7C16.5 11.7 16.8 11.775 17.1 11.925V11.775C17.1 11.55 17.025 11.325 16.8 11.1C16.575 10.95 16.35 10.8 16.125 10.8C15.75 10.8 15.375 10.95 15.15 11.325L14.55 10.95C14.85 10.425 15.375 10.2 16.05 10.2ZM15.15 13.05C15.15 13.2 15.225 13.425 15.375 13.5C15.525 13.65 15.75 13.725 15.9 13.725C16.2 13.725 16.5 13.575 16.725 13.35C16.95 13.125 17.1 12.825 17.1 12.525C16.875 12.375 16.575 12.225 16.125 12.225C15.825 12.225 15.6 12.3 15.375 12.45C15.225 12.6 15.15 12.825 15.15 13.05Z" fill="#5F6368"/>
<path d="M21.75 10.35L19.35 15.9H18.6L19.5 13.95L17.925 10.35H18.675L19.875 13.125L21 10.35H21.75Z" fill="#5F6368"/>
<path d="M8.54998 11.4C8.54998 11.175 8.54998 10.95 8.47498 10.725H5.47498V12H7.19998C7.12498 12.375 6.89998 12.75 6.52498 12.975V13.8H7.57498C8.17498 13.275 8.54998 12.375 8.54998 11.4Z" fill="#4285F4"/>
<path d="M5.475 14.625C6.375 14.625 7.05 14.325 7.575 13.875L6.525 13.05C6.225 13.275 5.85 13.35 5.4 13.35C4.575 13.35 3.825 12.75 3.6 12H2.625V12.825C3.15 13.875 4.275 14.625 5.475 14.625Z" fill="#34A853"/>
<path d="M3.67498 12C3.52498 11.625 3.52498 11.175 3.67498 10.725V9.89999H2.62498C2.17498 10.8 2.17498 11.925 2.62498 12.825L3.67498 12Z" fill="#FBBC04"/>
<path d="M5.47499 9.37501C5.92499 9.37501 6.37499 9.52501 6.67499 9.82501L7.57499 8.92501C6.97499 8.40001 6.22499 8.10001 5.39999 8.10001C4.19999 8.10001 3.07499 8.77501 2.54999 9.90001L3.59999 10.725C3.89999 9.97501 4.64999 9.37501 5.47499 9.37501Z" fill="#EA4335"/>
</svg>
