<svg class="eds-icon" width="68" height="24" viewBox="0 0 68 24" xmlns="http://www.w3.org/2000/svg">
<path d="M35.3158 18.3601C35.3694 18.4143 35.3963 18.4685 35.3963 18.5499C35.3963 18.6312 35.3694 18.6854 35.289 18.7668C34.1897 19.8785 33.3853 20.2581 31.8034 20.2581C29.6852 20.2581 27.6743 18.7668 27.6743 16.0553C27.6743 13.5064 29.4975 11.8524 31.7498 11.8524C34.4578 11.8524 35.718 13.9674 35.718 15.9468V16.2722C35.718 16.4891 35.6107 16.6247 35.3694 16.6247H29.3903C29.6048 17.9262 30.5164 18.7397 31.8838 18.7397C33.01 18.7397 33.6266 18.3058 34.1361 17.7093C34.2165 17.6008 34.2969 17.5466 34.3774 17.5466C34.4578 17.5466 34.5114 17.5737 34.5919 17.6551L35.3158 18.3601ZM33.9752 15.1605C33.6803 13.9132 32.7955 13.3438 31.7766 13.3438C30.7041 13.3438 29.6852 13.9945 29.3903 15.1605H33.9752Z" />
<path d="M36.1202 12.2592C36.1202 12.0965 36.2006 12.0151 36.3615 12.0151H37.6217C37.863 12.0151 37.9702 12.0965 38.0507 12.3405L40.0348 17.5466L42.0189 12.3405C42.0993 12.0965 42.1798 12.0151 42.4479 12.0151H43.7081C43.8689 12.0151 43.9494 12.0965 43.9494 12.2592L40.8928 19.7429C40.8123 19.9598 40.6783 20.0954 40.4906 20.0954H39.579C39.3913 20.0954 39.2572 19.987 39.1768 19.7429L36.1202 12.2592Z" />
<path d="M51.9394 18.3601C51.9931 18.4143 52.0199 18.4685 52.0199 18.5499C52.0199 18.6312 51.9931 18.6854 51.9126 18.7668C50.8133 19.8785 50.0089 20.2581 48.427 20.2581C46.3088 20.2581 44.2979 18.7668 44.2979 16.0553C44.2979 13.5064 46.1212 11.8524 48.3734 11.8524C51.0814 11.8524 52.3416 13.9674 52.3416 15.9468V16.2722C52.3416 16.4891 52.2344 16.6247 51.9931 16.6247H46.0139C46.2284 17.9262 47.14 18.7397 48.5075 18.7397C49.6336 18.7397 50.2234 18.3058 50.7597 17.7093C50.8401 17.6008 50.9206 17.5466 51.001 17.5466C51.0814 17.5466 51.1351 17.5737 51.2155 17.6551L51.9394 18.3601ZM50.6256 15.1605C50.3307 13.9132 49.4459 13.3438 48.427 13.3438C47.3545 13.3438 46.3357 13.9945 46.0407 15.1605H50.6256Z" />
<path d="M53.8699 12.3676C53.8699 12.1507 53.9772 12.0151 54.2185 12.0151H55.2642C55.4787 12.0151 55.6127 12.1236 55.6127 12.3676V13.0997C56.1758 12.3676 57.007 11.8524 58.1867 11.8524C59.7418 11.8524 60.6534 12.8015 60.6534 14.2386C60.6534 14.4555 60.5462 14.5911 60.3049 14.5911H59.2324C59.0715 14.5911 58.9911 14.5097 58.9643 14.3199C58.8838 13.7234 58.5353 13.3709 57.8113 13.3709C57.141 13.3709 56.578 13.8318 56.1758 14.3741C55.7736 14.9164 55.5859 15.5672 55.5859 16.5976V19.77C55.5859 19.987 55.4787 20.1225 55.2373 20.1225H54.1917C53.9772 20.1225 53.8431 20.0141 53.8431 19.77V12.3676H53.8699Z" />
<path d="M61.7795 4.31442C61.7795 4.0975 61.8868 3.96193 62.1281 3.96193H63.1738C63.3883 3.96193 63.5223 4.07039 63.5223 4.31442V17.872C63.5223 18.4956 63.7905 18.7397 64.1926 18.7397C64.5948 18.7397 64.7289 18.577 64.9166 18.577C65.0238 18.577 65.0775 18.6583 65.0775 18.7939V19.8243C65.0775 19.9598 65.0238 20.0412 64.9166 20.0683C64.6485 20.1768 64.1658 20.231 63.7368 20.231C62.7984 20.231 61.8064 19.6887 61.8064 18.2787V4.31442H61.7795Z" />
<path d="M66.8471 10.7136C67.4838 10.7136 68 10.1916 68 9.54764C68 8.9037 67.4838 8.38169 66.8471 8.38169C66.2103 8.38169 65.6941 8.9037 65.6941 9.54764C65.6941 10.1916 66.2103 10.7136 66.8471 10.7136Z" />
<path d="M65.9891 12.3676C65.9891 12.1507 66.0963 12.0151 66.3376 12.0151H67.3833C67.5978 12.0151 67.7319 12.1236 67.7319 12.3676V19.7429C67.7319 19.9598 67.6246 20.0954 67.3833 20.0954H66.3376C66.1231 20.0954 65.9891 19.987 65.9891 19.7429V12.3676Z" />
<path d="M13.5442 24C7.83321 24 1.77363 16.8687 0.325769 13.0997C-0.156852 11.8253 -0.103227 10.8763 0.486643 10.334C1.55913 9.33072 2.76569 10.6322 3.83818 11.7711C4.13311 12.0693 4.56211 12.5303 4.91067 12.8286C4.64255 12.1507 4.05268 11.0661 3.65049 10.334C2.33669 7.97496 1.10333 5.72441 2.65844 4.82961C4.07949 3.98904 5.47373 5.80575 6.81434 7.54112C7.13609 7.94785 7.56509 8.49015 7.91365 8.89688C7.67234 8.11054 7.13609 6.99882 6.76072 6.15825C5.52735 3.44674 4.45486 1.11484 5.87591 0.247154C6.25129 0.0302332 6.68028 -0.0239971 7.10928 0.0844634C8.34265 0.409845 9.36151 2.09098 10.7558 4.61269C11.1043 5.23634 11.5333 6.02268 11.9355 6.61921C11.8819 6.15825 11.8014 5.64306 11.721 5.20922C11.3456 2.93155 10.9703 0.626766 12.4717 0.0844634C14.2145 -0.539184 15.2602 2.36213 16.7081 6.4294C17.298 8.11054 18.2632 10.8221 18.8799 11.5542C19.1212 11.1474 19.4161 10.2255 19.5234 9.62899C19.7379 8.38169 19.9256 7.3242 20.7567 6.94459C21.3734 6.64632 22.3119 6.75478 23.009 7.92073C24.4032 10.2797 24.5373 16.5705 20.7836 19.3362C19.7647 20.0683 18.3168 20.3123 17.0566 20.231C16.7617 21.6952 16.0378 24 13.5442 24ZM1.61276 11.8253C1.72001 12.3676 2.09538 13.5064 3.2215 15.0791C5.6346 18.4956 9.87095 22.346 13.5442 22.346C14.6972 22.346 15.153 21.3969 15.4211 19.987C12.9812 19.526 11.1043 18.4414 10.2195 16.923C9.7637 16.1366 9.62964 15.1876 9.87095 14.2928C10.1123 13.398 10.6753 12.6659 11.4529 12.2049C12.2304 11.744 13.1689 11.6084 14.0537 11.8524C14.9385 12.0965 15.6624 12.6659 16.1182 13.4522C16.8958 14.808 17.298 16.7603 17.1907 18.6041C18.1828 18.6583 19.2016 18.4414 19.7647 18.0347C21.8292 16.5162 22.4459 13.5064 22.2314 11.2017C22.0974 9.68322 21.6684 8.7613 21.4002 8.49015C21.2662 8.78842 21.1589 9.49341 21.0785 9.92725C20.8372 11.2288 20.5959 12.5845 19.6306 13.154C19.3089 13.3438 18.7994 13.3709 18.4241 13.2353C17.2711 12.8015 16.4668 10.6865 15.153 6.99882C14.5631 5.31768 13.5979 2.6604 12.9544 1.84695C12.8471 2.55194 13.1152 4.12462 13.2493 4.93807C13.571 6.86324 13.7051 7.89362 13.2225 8.54438C13.0348 8.78842 12.7667 8.95111 12.4449 8.97822C11.3456 9.08668 10.5144 7.62247 9.30789 5.42614C8.69121 4.28731 7.40421 2.00964 6.76072 1.71137C6.78753 2.44348 7.67234 4.39577 8.18177 5.48037C9.36151 8.05631 10.1391 9.73745 9.25426 10.6322C8.98614 10.9034 8.66439 11.039 8.28902 11.0119C7.40422 10.9576 6.65347 10.0357 5.50054 8.51727C5.01792 7.8665 4.02587 6.61921 3.51643 6.32094C3.62368 6.99882 4.50849 8.62573 5.01792 9.54764C6.2781 11.8253 7.27015 13.642 6.0636 14.5097C4.93748 15.296 3.78456 14.0488 2.71206 12.937C2.41713 12.5845 1.93451 12.0965 1.61276 11.8253ZM13.1957 13.3709C12.8739 13.3709 12.579 13.4522 12.2841 13.6149C11.8551 13.8589 11.5601 14.2657 11.4529 14.7266C11.3188 15.1876 11.3992 15.7028 11.6406 16.1095C12.2572 17.1941 13.7319 18.0076 15.6356 18.3872C15.6892 16.7331 15.2602 15.1876 14.7508 14.2928C14.5095 13.8589 14.1073 13.5607 13.6515 13.4522C13.4906 13.3709 13.3565 13.3709 13.1957 13.3709Z" />
</svg>
