<svg width="25" height="25" viewBox="0 0 25 25" class="eds-icon" xmlns="http://www.w3.org/2000/svg">
<path d="M14.5906 24.0213C8.89451 24.0213 2.79874 16.915 1.29978 13.1116C0.800125 11.8104 0.900055 10.9096 1.49964 10.3091C2.59888 9.30823 3.79804 10.6094 4.89728 11.7104C5.19707 12.0106 5.59679 12.5111 5.99652 12.7112C5.59679 11.8104 5.19707 11.0097 4.69742 10.209C3.39832 8.00708 2.09922 5.70503 3.69811 4.80424C5.09714 4.00353 6.49617 5.80512 7.8952 7.50663C8.19499 8.00707 8.59471 8.50752 8.99444 8.90787C8.69464 8.10716 8.19499 7.00619 7.79527 6.20548C6.49617 3.40299 5.49686 1.10095 6.89589 0.200154C7.29562 -2.30633e-05 7.69534 -2.30633e-05 8.09506 0.100066C9.29423 0.400332 10.3935 2.10184 11.7925 4.60406C12.0923 5.20459 12.5919 6.0053 12.9917 6.60583C12.8917 6.10539 12.8917 5.60495 12.7918 5.20459C12.3921 2.90255 12.0923 0.600509 13.5912 0.100066C15.2901 -0.500467 16.3893 2.40211 17.7883 6.40566C18.3879 8.10716 19.3872 10.8096 19.9868 11.5102C20.2866 10.9096 20.4865 10.209 20.5864 9.6085C20.7862 8.40743 20.9861 7.30645 21.7856 6.9061C22.3851 6.60583 23.3844 6.70592 24.084 7.90699C25.483 10.3091 25.5829 16.6147 21.8855 19.3171C20.8862 20.0177 19.3872 20.318 18.1881 20.2179C17.7883 21.7192 17.0888 24.0213 14.5906 24.0213ZM2.59888 11.8104C2.69881 12.3109 3.09853 13.512 4.19777 15.1134C6.5961 18.5164 10.8931 22.4199 14.5906 22.4199C15.7897 22.4199 16.1894 21.419 16.4892 20.0177C13.991 19.5173 12.1922 18.4163 11.2928 16.915C10.3935 15.3136 10.993 13.2117 12.5919 12.2108C14.1908 11.2099 16.2894 11.8104 17.1887 13.4119C17.9882 14.8131 18.3879 16.7148 18.288 18.6165C19.2873 18.7166 20.2866 18.4163 20.8862 18.0159C22.9847 16.5146 23.5843 13.512 23.3844 11.2099C23.2845 9.70858 22.7849 8.80779 22.585 8.50752C22.3851 9.00796 22.2852 9.40832 22.2852 9.90876C22.0853 11.2099 21.7856 12.6112 20.8862 13.1116C20.4865 13.3118 20.0867 13.3118 19.687 13.2117C18.4878 12.8113 17.6884 10.7095 16.3893 7.00619C15.7897 5.30468 14.7904 2.70237 14.1908 1.80157C14.0909 2.5022 14.3907 4.10361 14.4906 4.90432C14.7904 6.80601 14.9903 7.90699 14.4906 8.50752C14.2908 8.7077 13.991 8.90787 13.6912 8.90787C12.5919 9.00796 11.7925 7.50663 10.4934 5.30468C9.79388 4.30379 8.49478 2.00175 7.79527 1.70149C7.79527 2.40211 8.69464 4.40388 9.1943 5.50486C10.3935 8.10716 11.1929 9.80867 10.2935 10.7095C10.0937 11.0097 9.69395 11.1098 9.29423 11.1098C8.39485 11.1098 7.69534 10.1089 6.49617 8.60761C5.99652 8.00708 4.99721 6.70592 4.49756 6.40566C4.59749 7.10628 5.49686 8.7077 5.99652 9.6085C7.29562 11.9105 8.29492 13.7121 6.99582 14.6129C5.99652 15.3136 4.79735 14.0124 3.79804 12.9114C3.39832 12.5111 2.9986 12.2108 2.59888 11.8104ZM14.2908 13.4119C13.6912 13.4119 13.0916 13.7121 12.6919 14.3127C12.3921 14.9132 12.3921 15.6138 12.6919 16.1143C13.2915 17.2152 14.7904 18.0159 16.6891 18.4163C16.789 17.0151 16.4892 15.6138 15.7897 14.3127C15.5899 13.9123 15.1901 13.612 14.6905 13.4119C14.5906 13.4119 14.3907 13.4119 14.2908 13.4119Z" />
</svg>
