<svg class="eds-icon" width="24" height="24" viewBox="0 0 24 24" xmlns="http://www.w3.org/2000/svg">
<path fill-rule="evenodd" clip-rule="evenodd" d="M12 0C18.6 0 24 5.4 24 12C24 18.6 18.6 24 12 24C5.4 24 0 18.6 0 12C0 5.4 5.4 0 12 0Z" fill="#191919"/>
<path fill-rule="evenodd" clip-rule="evenodd" d="M12 17.4C10.6286 17.4 9.51428 16.2857 9.51428 14.9143C9.51428 13.5429 10.6286 12.4286 12 12.4286C13.3714 12.4286 14.4857 13.5429 14.4857 14.9143C14.4857 16.2857 13.3714 17.4 12 17.4ZM12 9.68571C11.1429 9.68571 10.2857 9.94286 9.51428 10.2857V4.62857H6.77142V15C6.77142 17.9143 9.08571 20.2286 12 20.2286C14.9143 20.2286 17.2286 17.9143 17.2286 15C17.2286 12 14.9143 9.68571 12 9.68571Z" fill="white"/>
<path fill-rule="evenodd" clip-rule="evenodd" d="M14.6572 3.85715C16.0286 3.85715 17.1429 4.97143 17.1429 6.34286C17.1429 7.71429 16.0286 8.82858 14.6572 8.82858C13.2857 8.82858 12.1714 7.71429 12.1714 6.34286C12.1714 4.97143 13.3714 3.85715 14.6572 3.85715Z" fill="#E5005D"/>
</svg>
