<svg class="eds-icon" width="24" height="24" viewBox="0 0 24 24" xmlns="http://www.w3.org/2000/svg">
<path d="M22 21H2C0.9 21 0 20.1 0 19V5C0 3.9 0.9 3 2 3H22C23.1 3 24 3.9 24 5V19C24 20.1 23.1 21 22 21Z" fill="#31A2E9"/>
<path d="M10.2 12.6C10.3 12.4 10.4 12.2 10.5 12C10.7 11.5 11 10.9 11.2 10.4C11.3 10.2 11.4 10 11.5 9.80001C11.5 9.70001 11.6 9.70001 11.7 9.70001C12.1 9.70001 12.5 9.70001 12.9 9.70001C13 9.70001 13.1 9.70001 13.2 9.70001C13.3 9.70001 13.3 9.70001 13.3 9.80001V9.90001C13.3 11.2 13.3 12.6 13.3 13.9C13.3 14.1 13.3 14.1 13.1 14.1C12.8 14.1 12.6 14.1 12.3 14.1C12.1 14.1 12.1 14.1 12.1 13.9C12.1 13.1 12.1 12.3 12.1 11.4C12.1 11.3 12.1 11.1 12.1 11C12.1 11.1 12 11.2 12 11.3C11.7 12 11.3 12.7 11 13.5C10.9 13.6 10.9 13.8 10.8 13.9C10.8 14 10.7 14 10.6 14C10.3 14 10.1 14 9.80001 14C9.70001 14 9.70001 14 9.60001 13.9C9.20001 13.1 8.90001 12.2 8.50001 11.4C8.40001 11.3 8.40001 11.1 8.30001 11V11.1C8.30001 12 8.30001 13 8.30001 13.9C8.30001 14 8.30001 14 8.20001 14C7.60001 14 6.90001 14 6.30001 14C6.20001 14 6.20001 14 6.10001 13.9C6.00001 13.6 5.90001 13.4 5.80001 13.1L5.70001 13C5.10001 13 4.40001 13 3.80001 13C3.70001 13 3.70001 13 3.70001 13.1C3.60001 13.4 3.50001 13.6 3.40001 13.9C3.40001 14 3.30001 14 3.20001 14C2.90001 14 2.60001 14 2.30001 14C2.20001 14 2.20001 14 2.20001 13.9C2.50001 13.2 2.80001 12.6 3.10001 11.9C3.40001 11.2 3.70001 10.5 4.00001 9.80001C4.00001 9.80001 4.00001 9.80001 4.10001 9.80001C4.50001 9.80001 4.90001 9.80001 5.30001 9.80001C5.40001 9.80001 5.40001 9.80001 5.50001 9.90001C5.70001 10.4 6.00001 11 6.20001 11.5C6.50001 12.2 6.80001 12.9 7.20001 13.6C7.20001 13.7 7.20001 13.7 7.30001 13.7C7.30001 13.6 7.30001 13.6 7.30001 13.5C7.30001 12.3 7.30001 11.1 7.30001 9.90001C7.30001 9.70001 7.30001 9.70001 7.50001 9.70001C8.00001 9.70001 8.40001 9.70001 8.90001 9.70001C9.00001 9.70001 9.00001 9.70001 9.10001 9.80001C9.40001 10.4 9.60001 11 9.90001 11.6C9.90001 12 10 12.3 10.2 12.6ZM4.10001 12.2C4.50001 12.2 4.90001 12.2 5.30001 12.2C5.10001 11.7 4.90001 11.3 4.70001 10.8C4.50001 11.3 4.30001 11.8 4.10001 12.2Z" fill="white"/>
<path d="M19.3 11.2C19.5 11 19.6 10.9 19.7 10.7C19.9 10.4 20.2 10.2 20.4 9.90001C20.4 9.90001 20.5 9.80001 20.6 9.80001C21 9.80001 21.3 9.80001 21.7 9.80001H21.8C21.8 9.90001 21.7 9.90001 21.7 9.90001C21.2 10.5 20.7 11 20.2 11.6C20.1 11.7 20 11.8 20 11.9V12C20.6 12.6 21.1 13.3 21.7 13.9L21.8 14C21.9 14.1 21.8 14.1 21.7 14.1H21.6C21.2 14.1 20.9 14.1 20.5 14.1C20.4 14.1 20.3 14.1 20.3 14C19.9 13.6 19.6 13.2 19.2 12.8L19.1 12.7C19 12.8 18.9 12.9 18.8 13C18.5 13.3 18.2 13.7 17.9 14C17.8 14.1 17.8 14.1 17.7 14.1C17.4 14.1 17.1 14.1 16.7 14.1C15.7 14.1 14.8 14.1 13.8 14.1C13.6 14.1 13.6 14.1 13.6 13.9C13.6 12.6 13.6 11.2 13.6 9.90001C13.6 9.70001 13.6 9.70001 13.8 9.70001C15.1 9.70001 16.3 9.70001 17.6 9.70001C17.8 9.70001 18 9.80001 18.1 9.90001C18.6 10.4 18.9 10.7 19.3 11.2C19.2 11.1 19.3 11.1 19.3 11.2ZM16.3 10.8C15.9 10.8 15.5 10.8 15.1 10.8C15 10.8 15 10.8 15 10.9C15 11.1 15 11.2 15 11.4C15 11.5 15 11.5 15.1 11.5C15.8 11.5 16.5 11.5 17.1 11.5C17.3 11.5 17.3 11.5 17.3 11.7C17.3 11.9 17.3 12 17.3 12.2C17.3 12.4 17.3 12.4 17.1 12.4C16.4 12.4 15.7 12.4 15 12.4C14.9 12.4 14.9 12.4 14.9 12.5C14.9 12.7 14.9 12.9 14.9 13.1C14.9 13.2 14.9 13.2 15 13.2C15.8 13.2 16.5 13.2 17.3 13.2H17.4C17.8 12.8 18.1 12.4 18.4 12.1C18.4 12 18.5 12 18.4 12C18.1 11.7 17.8 11.3 17.5 11L17.4 10.9C17 10.8 16.6 10.8 16.3 10.8Z" fill="white"/>
</svg>